<?xml version="1.0" standalone="no"?>
<!DOCTYPE svg PUBLIC "-//W3C//DTD SVG 20010904//EN"
 "http://www.w3.org/TR/2001/REC-SVG-20010904/DTD/svg10.dtd">
<svg version="1.0" xmlns="http://www.w3.org/2000/svg"
 width="480.000000pt" height="480.000000pt" viewBox="0 0 480.000000 480.000000"
 preserveAspectRatio="xMidYMid meet">

<g transform="translate(0.000000,480.000000) scale(0.100000,-0.100000)"
fill="#000000" stroke="none">
<path d="M2205 3723 c-116 -17 -318 -85 -395 -131 -19 -12 -51 -30 -71 -41
-103 -57 -280 -224 -359 -341 -39 -57 -130 -229 -130 -245 0 -4 -7 -21 -15
-38 -38 -84 -58 -201 -62 -367 -3 -91 0 -190 5 -220 14 -78 40 -181 52 -205 5
-11 19 -45 31 -75 68 -178 222 -376 390 -501 93 -70 221 -142 291 -164 29 -9
62 -20 73 -25 52 -23 57 -20 76 65 10 44 23 87 28 95 4 9 11 29 15 46 7 29 5
31 -51 48 -281 89 -511 316 -608 601 -62 184 -59 444 7 620 13 33 45 101 72
150 93 171 312 359 485 418 177 60 299 74 456 52 97 -14 264 -63 289 -85 5 -5
18 -5 30 0 11 5 66 23 121 40 106 34 165 58 165 69 0 19 -192 127 -294 165
-147 56 -220 69 -401 71 -93 2 -183 1 -200 -2z"/>
<path d="M3427 3525 c-41 -41 -258 -146 -417 -202 -138 -48 -218 -70 -420
-114 -125 -27 -173 -36 -380 -75 -256 -48 -454 -156 -510 -280 -23 -49 -55
-193 -70 -314 -6 -47 -16 -100 -21 -118 -20 -61 25 -143 108 -199 126 -85 393
-143 668 -143 66 -1 161 -7 210 -15 50 -8 91 -14 93 -15 6 0 -24 -26 -103 -85
-104 -79 -197 -166 -250 -235 -44 -58 -115 -193 -115 -220 0 -9 -4 -20 -9 -26
-15 -16 -63 -243 -75 -349 l-6 -50 14 35 c16 41 50 101 85 150 59 81 244 246
381 340 51 35 177 138 208 170 32 34 82 124 82 149 0 6 4 19 9 29 5 9 19 55
30 102 12 47 28 110 37 140 8 30 15 85 16 122 2 64 0 70 -32 103 -57 59 -130
76 -375 86 -115 5 -230 11 -255 15 -157 21 -383 75 -395 94 -5 8 36 23 148 55
57 16 168 38 347 70 101 18 287 62 315 74 11 5 56 23 100 41 261 109 423 248
529 457 20 39 36 74 36 79 0 5 7 22 15 38 16 30 32 106 22 106 -3 0 -12 -7
-20 -15z"/>
<path d="M3346 3071 c-30 -38 -69 -79 -86 -91 -31 -22 -38 -48 -19 -67 5 -5
24 -55 40 -109 53 -171 52 -408 -2 -568 -47 -138 -130 -275 -224 -368 -134
-133 -260 -243 -380 -333 -132 -99 -265 -207 -265 -216 0 -13 118 0 232 25
286 63 567 254 730 496 142 212 211 437 210 680 -1 69 -3 136 -5 150 -21 119
-42 212 -57 245 -10 22 -21 51 -25 65 -11 37 -76 160 -85 160 -4 0 -33 -31
-64 -69z"/>
<path d="M1616 1069 c-34 -27 -33 -55 4 -87 33 -29 38 -42 15 -42 -8 0 -15 5
-15 10 0 16 -37 11 -44 -6 -4 -10 -1 -14 6 -11 7 2 25 -2 39 -9 22 -11 30 -11
50 3 13 9 27 21 31 26 11 17 -12 53 -43 64 -16 6 -29 18 -29 27 0 20 14 21 30
1 15 -18 36 -19 43 -2 2 6 -10 20 -29 29 -31 16 -34 16 -58 -3z"/>
<path d="M1827 1058 c-59 -43 -55 -106 9 -133 36 -15 37 -14 60 10 28 30 31
71 8 103 -26 37 -46 43 -77 20z m39 -35 c23 -27 31 -63 18 -76 -4 -3 -19 4
-35 15 -28 21 -40 64 -22 81 10 11 14 9 39 -20z"/>
<path d="M1937 1073 c-12 -12 -7 -22 8 -17 19 8 29 -35 21 -92 -6 -44 -2 -49
28 -38 11 4 14 14 11 33 -5 24 -5 24 7 7 7 -10 23 -30 34 -44 l21 -26 7 22 c4
12 12 22 17 22 5 0 9 9 9 20 0 12 -7 20 -16 20 -14 0 -14 -3 -4 -15 18 -22
-13 -20 -35 2 -16 16 -16 18 9 36 18 13 26 28 26 49 0 29 -1 30 -22 15 -13 -8
-22 -21 -20 -27 3 -14 -16 -40 -30 -40 -6 0 -8 14 -4 34 6 29 3 34 -16 40 -30
8 -43 8 -51 -1z"/>
<path d="M2167 1061 c-10 -12 -9 -14 6 -8 16 6 18 2 15 -25 -2 -18 2 -33 10
-35 6 -3 12 2 12 11 0 26 17 18 24 -10 10 -37 2 -40 -39 -14 -38 24 -69 21
-58 -5 5 -13 7 -14 14 -3 7 10 16 9 46 -8 21 -11 37 -26 36 -32 -2 -7 10 -12
31 -12 l35 0 -21 46 c-11 26 -18 59 -16 74 4 27 2 28 -40 32 -29 2 -47 -1 -55
-11z"/>
<path d="M2297 1065 c-4 -8 -2 -17 3 -20 6 -4 10 -1 10 6 0 10 3 10 11 2 7 -7
10 -35 7 -72 -4 -61 -4 -61 22 -59 23 2 25 5 22 35 -5 44 5 42 26 -6 14 -33
19 -38 32 -28 12 9 15 26 10 77 -4 56 -8 65 -26 68 -18 3 -20 -2 -17 -35 4
-36 3 -37 -11 -19 -9 11 -16 27 -16 37 0 27 -64 39 -73 14z"/>
<path d="M2469 1064 c-12 -15 -11 -16 10 -9 23 7 23 7 19 -63 -2 -39 0 -68 4
-66 4 3 23 1 41 -4 71 -20 112 31 80 97 -10 20 -29 41 -43 48 -36 18 -95 16
-111 -3z m98 -25 c6 -6 9 -18 6 -25 -3 -9 1 -14 12 -14 24 0 17 -64 -7 -68
-13 -2 -18 3 -18 18 0 12 -4 18 -10 15 -6 -4 -10 12 -10 39 0 47 7 55 27 35z"/>
<path d="M2697 1061 c-10 -12 -9 -14 5 -8 15 5 18 1 15 -28 -2 -29 -5 -33 -23
-29 -14 4 -23 0 -27 -10 -5 -13 -2 -15 18 -10 15 4 32 1 43 -7 15 -12 16 -12
6 1 -9 12 -7 19 6 33 17 17 18 17 25 -10 4 -16 2 -29 -4 -31 -16 -5 11 -42 31
-42 26 0 30 17 12 51 -9 18 -14 46 -12 64 4 33 3 33 -40 37 -29 2 -47 -1 -55
-11z"/>
<path d="M2828 1073 c6 -2 18 -2 25 0 6 3 1 5 -13 5 -14 0 -19 -2 -12 -5z"/>
<path d="M2870 1073 c0 -6 8 -17 18 -24 16 -13 16 -13 2 6 -8 11 -16 22 -17
24 -2 2 -3 0 -3 -6z"/>
<path d="M2900 1070 c0 -5 5 -10 11 -10 5 0 7 5 4 10 -3 6 -8 10 -11 10 -2 0
-4 -4 -4 -10z"/>
<path d="M2152 949 c-17 -26 -10 -33 23 -25 22 6 24 9 15 26 -14 25 -22 25
-38 -1z"/>
<path d="M2677 945 l-18 -25 29 0 c36 0 44 8 31 31 -13 25 -20 24 -42 -6z"/>
<path d="M1740 940 c0 -5 5 -10 11 -10 5 0 7 5 4 10 -3 6 -8 10 -11 10 -2 0
-4 -4 -4 -10z"/>
</g>
</svg>
