<svg width="2500" height="2500" viewBox="0 0 2500 2500" fill="none" xmlns="http://www.w3.org/2000/svg">
<path fill-rule="evenodd" clip-rule="evenodd" d="M0 0H2500V2500H0V0Z" fill="white"/>
<path fill-rule="evenodd" clip-rule="evenodd" d="M1618.51 1341.01C1618.51 1348.76 1618.51 1356.51 1619.63 1364.24C1619.63 1446.09 1619.63 1531.25 1539.98 1579.91C1484.67 1613.08 1421.65 1618.61 1359.72 1618.61C1306.65 1618.61 1252.45 1617.5 1199.37 1616.38C1009.14 1598.7 990.345 1465.99 987.025 1305.61L984.807 1207.2C984.807 939.556 1047.84 870.997 1316.59 870.997H1368.57C1450.42 870.997 1538.9 877.625 1585.33 951.734C1618.52 1005.93 1613 1070.07 1617.43 1130.89L1434.95 1131.73C1434.95 1051.99 1413.74 1034.39 1331.99 1034.39H1312.94C1278.62 1034.39 1227.15 1035.4 1204.94 1060.63C1184.75 1081.82 1182.74 1113.1 1180.72 1141.38C1179.72 1171.66 1179.72 1202.95 1179.72 1234.24L1180.72 1313.98C1180.72 1423.99 1209.9 1454.12 1305.74 1452.26C1374.37 1450.94 1439.98 1450.24 1439.98 1364.45C1439.98 1353.36 1438.97 1353.63 1438.97 1342.51L1618.51 1341.01V1341.01ZM551.526 1039.38L648.294 1355.59H465.135L551.526 1039.38ZM691.483 1497.29L724.322 1607.89H926.495L693.221 875.226H406.382L193.833 1607.9H396.006L427.107 1497.31H691.483V1497.29ZM1755.94 875.226H2267.43V1030.75H1946.02V1155.15H2253.6V1293.41H1946.02V1452.38H2288.15V1607.9H1755.94V875.226ZM2362.55 861.983C2333.21 861.983 2308.62 885.018 2308.62 915.211C2308.62 945.976 2333.21 969.023 2362.55 969.023C2369.62 969.066 2376.63 967.703 2383.17 965.012C2389.71 962.322 2395.65 958.357 2400.65 953.35C2405.64 948.343 2409.59 942.393 2412.27 935.845C2414.94 929.298 2416.29 922.284 2416.23 915.211C2416.23 885.031 2391.75 861.983 2362.55 861.983ZM2362.55 869.856C2387.32 869.856 2406.5 889.596 2406.5 915.224C2406.5 941.41 2387.32 961.163 2362.55 961.163C2337.51 961.163 2318.35 941.41 2318.35 915.224C2318.35 889.596 2337.53 869.856 2362.55 869.856Z" fill="#212121"/>
<path fill-rule="evenodd" clip-rule="evenodd" d="M2351.41 919.79H2361.69L2378.73 946.702H2389.17L2371.29 919.089C2380.59 918.091 2387.76 913.37 2387.76 902.06C2387.76 890.037 2380.74 884.175 2365.85 884.175H2341.69V946.715H2351.42V919.79H2351.41V919.79ZM2351.41 892.035H2364.27C2370.86 892.035 2378.03 893.319 2378.03 901.619C2378.03 911.489 2370.16 911.917 2361.56 911.917H2351.41V892.035Z" fill="black"/>
</svg>
