<?xml version="1.0" standalone="no"?>
<svg viewBox="0 0 200 200" xmlns="http://www.w3.org/2000/svg">
  <path fill="#ffffff" d="M46.2,-71.7C60.6,-62.5,73.6,-51,81.3,-36.4C89.1,-21.8,91.6,-4.1,87,11C82.4,26.1,70.7,38.6,58.1,46.7C45.4,54.8,31.8,58.3,18.7,60.9C5.6,63.4,-6.9,64.8,-19.4,62.6C-31.8,60.5,-44.2,54.7,-53.5,45.5C-62.8,36.3,-68.9,23.5,-69.9,10.6C-70.9,-2.3,-66.6,-15.4,-62.2,-29.9C-57.9,-44.4,-53.4,-60.2,-43,-71.3C-32.6,-82.3,-16.3,-88.4,-0.2,-88.1C15.9,-87.7,31.7,-80.9,46.2,-71.7Z" transform="translate(100 100)" />
</svg>
