<svg width="2480" height="2500" viewBox="0 0 2480 2500" fill="none" xmlns="http://www.w3.org/2000/svg">
<g clip-path="url(#clip0_105_74)">
<path d="M1240.03 20.5049C1210.22 20.5049 1152.09 23.6204 1149.72 23.7643C1160.99 26.7698 280.028 478.733 280.028 473.992C279.757 475.524 279.342 476.794 278.538 477.793C103.899 691.427 0.239746 962.817 0.239746 1260.28C0.239746 1505.44 71.6683 1733.79 194.486 1926.19C195.316 1925.74 507.207 2227.84 503.389 2257.41C709.395 2409.8 964.106 2499.99 1239.99 2499.99C1336.34 2499.99 1429.95 2488.61 1520.05 2467.86C1518.41 2458.16 1516.92 2448.43 1515.57 2438.69L1499.3 2324.4C1494.39 2293.13 1468.79 2080.63 1468.79 2080.63L1468.7 2080L1495.96 2069.54C1495.96 2069.54 1531.78 2071.02 1530.9 2071.13C1530.9 2071.13 1567.22 2284.85 1573.54 2321.92L1580.38 2361.17C1583.01 2376.97 1585.24 2392.65 1588.5 2408.89C1590.79 2422.39 1592.82 2435.34 1594.81 2448.22C1624.2 2439.39 1653.15 2429.6 1681.56 2418.74C1677.24 2394.45 1672.55 2369.42 1672.15 2365.71L1657.51 2278.76C1638.18 2189.07 1625.86 2122.53 1616.81 2078.27C1615.53 2071.91 1613.12 2060.61 1613.12 2060.61L1641.1 2049.42L1678.01 2052.3C1678.01 2052.3 1725.1 2258.36 1736.86 2320.66L1750.29 2390.03C1775.54 2378.6 1800.55 2366.53 1824.84 2353.47L1817.07 2317.88C1816.24 2314.43 1815.35 2310.29 1814.29 2305.69C1798.47 2236.08 1756.48 2042.18 1756.48 2042.18L1790.16 2028.95L1823.06 2033.59H1823.21C1823.21 2033.59 1865.48 2212.34 1892.89 2314.08C1939.98 2284.85 1985.09 2252.76 2027.63 2217.67C2027.63 2217.67 2420.23 1629.99 2423.04 1631.93C2459.84 1514.61 2479.77 1389.76 2479.77 1260.27C2479.75 575.585 1924.7 20.5049 1240.03 20.5049Z" fill="#212121"/>
<path d="M1550.63 637.701C1550.63 637.701 1395.78 345.705 1332.62 301.876C1269.53 258.047 1165.54 230.684 1093.45 239.794C1002.18 251.316 793.421 361.791 779.545 365.439C779.647 366.506 701.767 462.571 681.431 561.506C676.911 583.493 596.77 934.015 596.77 934.015L749.16 1374.25L1292.23 1633.35L1491.36 1416.58C1491.36 1416.58 1516.77 1202.11 1570.38 1041.26C1624 880.399 1607.07 792.919 1607.07 792.919L1550.63 637.701V637.701Z" fill="#FFF1E2"/>
<path d="M885.507 921.384C876.889 926.294 870.514 927.445 866.534 929.562C862.547 931.738 856.257 936.411 857.814 944.767C859.457 953.165 861.76 955.892 862.564 962.368C863.326 968.777 860.244 980.393 852.794 993.583C845.462 1006.81 833.728 1016.36 827.065 1020.23C820.513 1024.15 816.491 1025.2 812.766 1027.17C811.92 1027.56 811.158 1029.58 810.396 1033.64L810.319 1033.72C810.839 1033.3 811.422 1032.96 812.047 1032.72C813.477 1032.11 816.424 1032.04 819.073 1031.54C821.639 1031.07 823.527 1030.47 824.466 1030.34C825.465 1030.22 831.409 1029.39 832.408 1029.17C833.407 1028.97 851.414 1025.2 862.572 1020.06C873.671 1014.9 893.16 1005.5 904.327 992.008C912.531 982.128 922.411 964.138 923.376 946.283C923.605 942.591 923.562 940.297 923.562 940.297C923.562 940.297 923.605 940.297 923.605 940.255C923.732 940.255 923.842 940.221 923.96 940.221C922.22 940.177 920.544 939.558 919.194 938.46C916.205 936.123 913.792 934.396 904.632 924.609C898.74 918.294 899.146 913.663 902.338 908.371C902.261 908.49 902.126 908.608 902.041 908.727C899.315 911.267 894.015 916.482 885.507 921.384V921.384ZM1340.8 863.027C1340.8 863.027 1335.77 863.459 1334.04 864.221C1332.67 864.788 1330.08 865.753 1328.31 868.123C1326.54 870.536 1326.14 874.752 1329.84 879.282C1333.6 883.794 1338.8 892.226 1338.37 899.448C1338.09 902.623 1338.55 913.002 1335.19 920.478C1331.43 928.952 1327.07 937.308 1324.09 941.076C1322.36 943.294 1314.38 952.116 1313.21 958.364C1312.9 959.676 1313.21 961.132 1313.83 962.504C1313.83 962.504 1313.93 962.427 1313.93 962.538C1313.88 962.58 1313.93 962.656 1313.88 962.732C1314.03 962.216 1314.29 961.735 1314.63 961.318C1316.61 959.083 1320.67 956.823 1327.73 954.647C1337.1 951.684 1343.75 948.154 1348.93 944.208C1348.3 944.936 1348.14 945.783 1347.74 946.621C1348.27 945.326 1348.88 944.048 1350.04 943.032C1352.82 940.636 1389.56 915.974 1390.5 876.158C1390.86 861.207 1371.46 859.234 1363.39 858.963C1357.38 858.709 1346.07 864.212 1341.3 863.052C1341.21 863.018 1341.08 862.891 1340.9 862.858C1340.98 862.858 1340.98 862.891 1340.98 862.891C1340.98 862.984 1340.83 862.984 1340.8 863.027V863.027ZM949.528 1137.9C949.528 1137.9 1095.57 1183.06 1165.41 1101.92C1235.26 1020.79 1355.9 1144.97 1363.66 1181.65C1371.43 1218.33 1182.35 1319.93 1125.2 1322.04C1068.05 1324.16 841.585 1293.82 841.585 1270.54C841.585 1247.26 949.528 1137.9 949.528 1137.9ZM1548.86 557.629C1525.64 311.333 1412.31 187.888 1330.86 127.974C1245.26 71.5725 1041.62 21.8933 945.65 26.3804C832.416 31.6717 570.915 155.184 560.798 164.31C551.155 173.107 375.779 466.356 397.47 518.744C419.16 571.132 449.892 818.554 459.907 838.424C462.955 844.376 512.981 1005.57 545.982 999.636C579.245 993.65 610.257 846.636 608.775 835.25C604.542 802.799 545.643 656.564 550.215 635.94C554.846 615.376 712.155 369.089 723.415 360.436C731.356 354.391 1001.2 320.832 1002.76 323.439C1002.73 323.363 1002.73 323.278 1002.62 323.202L1002.58 323.16C1021.45 306.719 1065.19 263.381 1104.28 264.938C1143.33 266.547 1254.99 280.499 1318.07 324.379C1381.25 368.208 1400.75 411.114 1406.11 423.119C1406.07 423.119 1405.99 423.178 1405.94 423.178C1408.06 423.492 1495.93 623.241 1521.68 623.952C1538.87 624.418 1551.69 587.235 1548.86 557.629V557.629ZM1439.55 721.389C1430.17 722.481 1404.55 724.818 1401.72 725.173C1396.68 725.825 1396.82 728.67 1397.13 730.803C1397.39 733.004 1398.19 741.437 1398.49 745.069C1398.8 748.675 1402.57 750.792 1406.44 750.478C1410.32 750.207 1434.83 747.989 1438.48 747.422C1442.05 746.838 1445.59 743.816 1445.54 740.929C1445.46 738.025 1445.51 730.354 1445.46 727.256C1445.38 724.132 1443.08 720.991 1439.55 721.389V721.389ZM419.896 1899.17C424.764 1900.23 429.954 1901.41 434.966 1902.58C423.765 1899.98 411.583 1897.32 404.598 1895.6C401.144 1894.72 395.709 1894.22 389.418 1894.35C378.92 1894.58 365.959 1896.65 355.495 1901.9C342.262 1908.47 258.194 1951.11 222.958 1968.9C263.209 2026.62 308.262 2080.82 357.637 2130.95C360.718 2118.25 415.824 2060.42 423.579 2026.53C434.196 1980.09 407.773 1918.78 419.896 1899.17V1899.17ZM1823.09 2033.63L1756.64 2042.2C1756.64 2042.2 1804.44 2262.85 1817.23 2317.89L1824.93 2353.48C1848.04 2341.03 1870.65 2327.89 1892.85 2314.08C1865.39 2212.35 1823.13 2033.63 1823.13 2033.63H1823.09V2033.63Z" fill="white"/>
<path d="M2208.04 1150.79C2174.49 1176.14 2155.91 1210.37 2156.02 1244.64C2156.17 1295.42 2197.25 1344.33 2292.42 1344.02C2313.67 1343.83 2334.87 1341.91 2355.81 1338.25C2361.19 1337.38 2366.55 1336.4 2371.89 1335.3L2382.96 1288.03C2364.52 1294.19 2341.22 1299.29 2322.54 1299.37C2271.86 1299.53 2237.87 1269.48 2237.79 1230.06C2237.71 1209.06 2246.34 1190.61 2261.95 1177.11C2278.68 1162.65 2303.33 1153.91 2334.14 1153.91C2358.55 1153.91 2372.82 1160.65 2382.56 1170.29C2384.52 1172.18 2386.32 1174.16 2387.9 1176.23H2395.84L2411.38 1120.44C2395.36 1115.16 2371.64 1110.71 2346.61 1110.43C2288.32 1109.66 2240.97 1125.92 2208.04 1150.79V1150.79ZM2128.67 1158.54C2135.51 1158.54 2141.19 1161.03 2145 1164.29C2148.27 1167.06 2150.22 1170.36 2150.22 1173.2H2158.03L2173.17 1112.62H1967.48L1964.49 1124.47L1963.78 1127.35C1963.78 1127.35 1986.29 1129.88 1979.39 1152.38L1928.05 1338.92L2015.37 1339.09H2030.69L2034.58 1323.08C2034.58 1323.08 2015.37 1318.44 2020.4 1300.71C2020.63 1299.6 2027.86 1273.07 2032.18 1257.14C2034.11 1250.27 2035.48 1245.32 2035.48 1245.32L2082.5 1245.29C2090.18 1245.29 2096.08 1246.7 2100.63 1248.46C2110.05 1252.07 2113.66 1257.54 2113.66 1257.54L2127.29 1202.1H2048.06L2056.62 1170.44L2059.83 1158.63L2128.67 1158.54V1158.54ZM1878.76 1305.63C1872.66 1299.11 1819.82 1216.79 1819.82 1216.79L1913.28 1141.99L1916.37 1139.5C1919.94 1136.51 1923.81 1133.9 1927.93 1131.74C1937.87 1126.64 1944.27 1127.36 1944.27 1127.36L1948.02 1112.46L1827.9 1112.63L1824.9 1124.44L1824.19 1127.36C1832.36 1127.93 1843.75 1135.23 1834.44 1143.92C1833.21 1144.97 1737.89 1217.81 1737.89 1217.81L1738.64 1215.23L1758.46 1143.43C1762.65 1129.09 1778.06 1127.36 1778.06 1127.36L1781.82 1112.59L1667.13 1112.62L1664.19 1124.44L1663.42 1127.36C1668.91 1128.78 1684.57 1131.82 1679.15 1152.4C1640.87 1290.72 1645.25 1277.03 1642.66 1284.56C1634.08 1317.35 1621.24 1321.86 1613.52 1322.7C1611.83 1322.86 1610.38 1322.86 1609.32 1322.92L1607.73 1329.11L1605.3 1338.92H1725.25L1729.26 1322.68C1729.26 1322.68 1710.23 1318.91 1713.86 1305.18C1717.46 1291.88 1721.09 1278.6 1724.75 1265.32C1728.87 1250.33 1732.51 1237.19 1732.51 1237.19C1753.31 1270.53 1758.1 1274.65 1783.2 1309.11C1806.31 1340.98 1831 1339.49 1890.62 1339.08C1895.47 1339.04 1900.51 1339 1905.93 1339L1909.9 1323.07C1894.79 1323.16 1884.8 1312.13 1878.76 1305.63V1305.63ZM2444.35 1116.53C2442.94 1115.11 2441.27 1113.99 2439.42 1113.23C2437.57 1112.48 2435.59 1112.11 2433.59 1112.15C2429.45 1112.15 2425.91 1113.61 2422.92 1116.53C2421.49 1117.92 2420.37 1119.58 2419.61 1121.42C2418.85 1123.26 2418.48 1125.23 2418.51 1127.22C2418.51 1131.44 2420 1135.01 2422.92 1137.98C2425.83 1140.91 2429.45 1142.43 2433.59 1142.43C2437.84 1142.43 2441.37 1140.9 2444.35 1137.98C2447.31 1135 2448.78 1131.43 2448.78 1127.22C2448.83 1125.23 2448.46 1123.25 2447.69 1121.41C2446.93 1119.56 2445.79 1117.9 2444.35 1116.53V1116.53ZM2442.88 1136.5C2441.69 1137.75 2440.24 1138.73 2438.65 1139.4C2437.05 1140.07 2435.34 1140.4 2433.61 1140.37C2430 1140.37 2426.94 1139.07 2424.43 1136.5C2423.2 1135.29 2422.23 1133.85 2421.58 1132.25C2420.92 1130.66 2420.6 1128.94 2420.62 1127.22C2420.62 1123.65 2421.92 1120.55 2424.43 1118.02C2425.62 1116.78 2427.04 1115.79 2428.62 1115.13C2430.2 1114.47 2431.9 1114.13 2433.61 1114.16C2435.34 1114.14 2437.05 1114.47 2438.64 1115.13C2440.24 1115.8 2441.68 1116.78 2442.88 1118.02C2445.4 1120.55 2446.64 1123.65 2446.64 1127.22C2446.64 1130.86 2445.39 1133.97 2442.88 1136.5Z" fill="white"/>
<path d="M2440.48 1123.64C2440.48 1121.56 2439.58 1120.15 2437.91 1119.42C2436.43 1119 2434.9 1118.82 2433.37 1118.87H2427.55V1135.49H2430.42V1128.92H2432.71C2434.31 1128.92 2435.37 1129.12 2436.07 1129.47C2437.05 1130.12 2437.6 1131.38 2437.57 1133.3V1134.58L2437.68 1135.14V1135.34C2437.68 1135.34 2437.68 1135.42 2437.78 1135.5H2440.48L2440.43 1135.26C2440.27 1135.14 2440.27 1134.87 2440.2 1134.42V1131.96C2440.2 1131.11 2439.89 1130.19 2439.28 1129.34C2438.73 1128.49 2437.68 1127.93 2436.45 1127.74C2437.29 1127.65 2438.11 1127.38 2438.84 1126.93C2439.37 1126.57 2439.8 1126.08 2440.09 1125.5C2440.38 1124.92 2440.51 1124.28 2440.48 1123.64V1123.64ZM2435.85 1126.55C2434.98 1126.81 2434.07 1126.92 2433.16 1126.86H2430.46V1120.88H2432.93C2434.57 1120.85 2435.8 1121.07 2436.54 1121.49C2437.25 1121.88 2437.65 1122.72 2437.65 1123.94C2437.66 1124.51 2437.49 1125.07 2437.17 1125.54C2436.85 1126 2436.39 1126.36 2435.85 1126.55ZM2275.89 1583.09C2117.85 1535.12 1793.32 1546.41 1793.32 1546.41L2058.59 2171.49C2058.59 2171.49 2083.15 2159.17 2086.23 2165.89C2230.14 2031.35 2341.88 1863.11 2408.89 1673.62C2403.61 1669.56 2433.92 1631.07 2275.89 1583.09V1583.09Z" fill="white"/>
<path d="M1736.95 2320.67C1725.12 2258.38 1677.98 2052.3 1677.98 2052.3C1677.98 2052.3 1740.56 2035.86 1755.22 2000.04C1769.89 1964.24 1736.69 1909.07 1735.12 1887.34C1728.33 1822.44 1702.84 1556.63 1661.04 1501.6C1636.7 1469.56 1524.77 1406.33 1516.05 1406.71C1475.84 1408.47 1395.41 1583.62 1328.21 1599.49C1283.41 1610.08 1251.77 1566.5 1259.02 1569.79C1258.89 1569.69 1258.74 1569.62 1258.66 1569.55C1258.66 1569.55 1258.74 1564.54 1251.25 1540.99C1243.75 1517.36 1228.05 1492.58 1225.15 1486.97C1222.33 1481.35 1213.81 1469.12 1213.52 1467.71C1213.28 1466.33 1210.18 1458.45 1207.99 1444.09C1203.82 1416.39 1205.73 1397.83 1205.89 1396.15C1205.97 1394.45 1206.75 1389.43 1206.97 1388.42C1207.15 1387.35 1206.74 1385.55 1205.46 1385.23C1204.12 1385 1200.55 1384.13 1196.81 1387.98C1189.03 1395.83 1188.67 1397.32 1188.53 1398.65C1188.26 1399.9 1189.06 1402.27 1188.82 1405.01C1187.98 1413.72 1186.45 1420.38 1182.55 1426.74C1178.66 1433.18 1176.13 1435.39 1170.63 1434.86C1165.03 1434.35 1160.38 1429.92 1159.7 1418.43C1158.97 1406.95 1156.71 1403.01 1154.41 1400.3C1152.11 1397.48 1146.88 1396.18 1145.09 1396.29C1143.33 1396.29 1141.86 1397.86 1129.75 1400.84C1117.75 1403.88 1098.67 1404.91 1095.86 1405.03C1092.99 1405.2 1082.51 1406.26 1082.44 1406.28C1084.63 1414.48 1038.43 1401.87 1030.66 1408.11C1014.78 1420.81 1007.37 1503.27 999.613 1546.03L999.596 1546.17L739.289 1572.5L648.278 1784.16C648.278 1784.16 675.793 2203.23 675.793 2209.58C675.793 2215.93 1251.49 2084.7 1251.49 2084.7L1468.68 2080C1468.68 2080 1468.74 2080.17 1468.78 2080.57C1470.32 2093.09 1494.39 2293.11 1499.29 2324.43L1515.58 2438.64C1516.92 2448.34 1518.41 2458.15 1520.04 2467.82C1545.25 2462 1570.2 2455.54 1594.8 2448.18C1592.8 2435.3 1590.73 2422.31 1588.48 2408.89C1585.25 2392.61 1583.01 2376.96 1580.4 2361.13L1573.51 2321.89C1567.22 2284.85 1530.82 2071.18 1530.82 2071.18L1568.98 2047.09L1613.14 2060.58C1614.32 2066.01 1615.49 2071.88 1616.84 2078.24C1625.89 2122.57 1638.25 2189.05 1657.53 2278.66L1672.17 2365.68C1672.57 2369.38 1677.28 2394.41 1681.63 2418.73C1704.79 2409.82 1727.68 2400.24 1750.29 2390L1736.95 2320.67V2320.67Z" fill="white"/>
<path d="M1305.46 732.945C1257.48 739.997 1187.64 779.153 1190.81 807.726C1192.77 825.437 1292.83 828.147 1337.91 831.364C1382.99 834.581 1390.43 791.243 1388.01 767.69C1385.59 744.137 1355.95 725.529 1305.46 732.945ZM1632.86 1502.13C1609.05 1499.65 1620.11 1538.27 1619.83 1542.17V1542.25C1631.34 1585.81 1641.27 1629.76 1649.62 1674.04C1649.72 1678.08 1650.01 1681.63 1650.51 1684.51C1653.93 1702.38 1660.99 1760.18 1674.57 1890.71C1677.71 1934.19 1680.45 1979.54 1682.26 2017.68C1683.5 2017.59 1763.69 2022.24 1763.69 2022.24C1763.69 2022.24 1760.51 1910.06 1735.65 1769.32C1710.77 1628.58 1673.47 1506.37 1632.86 1502.13V1502.13ZM1416.64 1148.67C1420.25 1128.82 1416.11 1119.01 1409.62 1107.4C1403.22 1095.83 1390.86 1085 1374.87 1074.5C1359.43 1064.22 1324.51 1033.41 1321.11 1030.5C1317.81 1027.65 1301.51 1012.23 1297.73 1009.17C1293.8 1006.15 1286.19 999.814 1269.48 991.339C1228.99 970.919 1196.42 986.2 1195.16 986.903C1193.93 987.597 1187.92 992.457 1182.16 997.926C1176.49 1003.3 1180.75 1013.7 1182.92 1017.49C1182.92 1017.49 1397.83 1175.02 1398.26 1178.69L1398.42 1178.81C1398.42 1178.81 1413.65 1164.89 1416.64 1148.67ZM1327.73 954.656C1320.67 956.831 1316.61 959.083 1314.62 961.327C1314.23 961.776 1314.08 962.267 1313.92 962.741C1313.74 963.113 1313.74 963.503 1313.74 963.875V964.739C1313.82 965.111 1313.97 965.425 1314.05 965.763C1314.24 966.153 1314.45 966.567 1314.68 966.957C1314.85 967.211 1314.99 967.49 1315.2 967.761C1315.52 968.252 1315.97 968.718 1316.4 969.209C1316.58 969.446 1316.8 969.641 1317.02 969.861C1317.76 970.606 1318.53 971.313 1319.34 971.977C1320.11 972.629 1320.89 973.23 1321.66 973.882C1321.82 973.958 1321.88 974.043 1322.05 974.162C1322.99 974.847 1323.94 975.474 1324.88 976.117C1324.92 976.16 1324.97 976.16 1325 976.193C1326.06 976.879 1327.08 977.531 1328.06 978.175C1329.11 978.801 1330.6 979.131 1332.42 979.173C1334.48 979.199 1336.54 979.009 1338.55 978.606C1346.09 977.116 1355.72 973.315 1363.89 969.404C1363.89 969.446 1363.81 969.404 1363.72 969.446C1363.25 969.607 1348.32 944.945 1348.89 944.217C1343.74 948.162 1337.14 951.693 1327.73 954.656V954.656ZM1039.17 1102.03C1039.76 1102.26 1040.28 1102.61 1040.89 1102.85C1040.82 1102.77 1040.77 1102.73 1040.72 1102.65C1037.67 1099.48 1037.43 1098.77 1036.36 1094.45C1035.2 1089.95 1032.27 1084.44 1031.03 1081.33C1029.7 1078.18 1023.79 1067.53 1021.52 1060.63C1019.25 1053.73 1018.22 1049.51 1017.76 1042.58C1016 1037.36 1014.67 1026.96 1015.47 1017.57C1016.16 1009.25 1018 999.678 1023.28 972.765C1026.85 955.087 1021.25 934.726 1021.06 915.872C1020.89 901.336 1019.46 865.609 1019.85 829.653V829.535C1017.36 830.382 697.314 761.721 699.566 761.383C699.608 761.383 699.693 761.34 699.761 761.34C702.292 734.842 700.76 699.191 699.329 672.158C707.617 590.96 720.096 496.969 748.788 434.312C770.961 386.131 767.997 402.005 778.953 379.299C779.562 378.08 780.366 376.649 780.493 374.964C780.612 373.83 779.681 367.455 779.494 365.431V365.355C778.843 365.55 700.844 343.707 603.797 566.442C563.177 659.756 617.233 893.099 617.233 893.099L701.716 921.147L756.746 891.253L886.912 864.534L940.088 890.466C940.088 890.466 923.706 940.255 923.579 940.255C923.579 940.289 923.537 940.289 923.537 940.289C923.537 940.289 923.579 942.625 923.308 946.274C922.394 964.163 912.505 982.154 904.259 992.042C893.143 1005.5 873.663 1014.9 862.572 1020.09C851.397 1025.2 833.407 1029 832.348 1029.17C831.392 1029.4 825.406 1030.22 824.433 1030.37C823.467 1030.44 821.622 1031.05 819.057 1031.56C816.39 1032.02 813.469 1032.1 812.013 1032.7C811.373 1032.93 810.786 1033.29 810.286 1033.75C809.461 1034.39 808.915 1035.33 808.762 1036.36C808.6 1037.13 808.586 1037.92 808.719 1038.7C809.253 1041.34 812.123 1045.04 812.461 1045.68C813.664 1047.98 820.563 1054.53 831.866 1052C843.484 1049.41 854.965 1046.23 866.264 1042.48C876.271 1039.22 889.537 1033.48 891.56 1031.71C893.618 1030 899.121 1025.8 900.001 1025.32C900.001 1025.28 900.035 1025.28 900.035 1025.28C901.178 1024.24 902.261 1023.26 903.337 1022.33C903.794 1021.94 904.251 1021.45 904.717 1021.1L905.021 1020.84C906.774 1041.81 881.621 1104.77 881.621 1104.77C881.621 1104.77 823.019 1125.62 826.735 1122.86C826.735 1122.86 826.668 1122.86 826.668 1122.89C821.91 1125.23 814.891 1127.76 807.797 1122.21C807.797 1122.21 800.897 1114.15 792.448 1103.46C787.036 1096.65 781.799 1089.72 776.743 1082.65C773.848 1078.63 771.177 1074.46 768.742 1070.15C765.094 1063.94 763.637 1059.95 762.994 1057.46C762.918 1057.26 762.825 1057.04 762.825 1056.89C761.25 1052.75 759.938 1046.05 759.938 1046.05C749.364 1044.74 738.239 1042.32 727.97 1038.57C728.046 1038.61 728.046 1038.71 728.131 1038.78C728.986 1039.55 655.551 1055.56 655.551 1055.56L731.534 1365.11C731.534 1365.11 873.341 1588.05 962.235 1545.01C975.485 1538.6 998.555 1493.41 989.048 1477.99C979.278 1462.18 828.894 1212.72 828.894 1212.72C828.894 1212.72 1037.14 1101.13 1039.17 1102.03V1102.03ZM1327.42 1943.4C1355.19 1961.84 1364.86 1966.15 1395.22 1978.85C1404.89 1983.41 1430.37 1978.23 1441.27 1961.9C1441.09 1961.99 1440.88 1962.22 1440.74 1962.34C1440.66 1962.38 1440.66 1962.38 1440.57 1962.38C1439.86 1962.81 1289.36 1844.72 1269.74 1837.73C1262.76 1835.26 1224.32 1849.36 1229.26 1856.47C1233.69 1862.86 1252.28 1882.22 1252.72 1882.96C1278.95 1903.37 1311.96 1930.6 1327.42 1943.4V1943.4ZM1007.39 1725.6L755.696 1581.49C755.696 1581.49 763.036 1652.89 762.994 1654L763.07 1654.09C781.433 1670.52 810.193 1690.2 814.739 1693.29C816.415 1694.4 828.115 1702.12 830.613 1704.91C833.703 1708.27 864.757 1730.36 867.127 1732.01C869.396 1733.55 902.93 1752.05 923.249 1762.87C923.977 1762.47 909.111 1774.65 909.339 1774.26C902.194 1774.73 897.012 1778.01 889.131 1780.53C853.852 1800.35 874.789 1841.58 878.116 1870.31C884.864 1894.51 893.389 1936.54 924.773 1940.46C948.664 1943.33 1003.36 1928.38 1032.27 1922.45C1036.36 1915.21 1078.28 1912.6 1077.76 1913.19C1085.16 1910.97 1095.09 1907.48 1098.09 1908.05C1099.89 1908.36 1091.54 1917.24 1086.7 1926.29C1081.83 1935.44 1051.74 2024.26 1023.72 2071.58C1014.33 2090.96 1018.78 2082.96 1013.06 2097.05V2097.09L1069.82 2110.09L1161.54 1877.26L1007.39 1725.6V1725.6ZM721.874 1906.59C731.644 1924.71 759.794 1962.73 761.174 1964.89C762.545 1967.01 768.607 1973.54 775.752 1981.53C782.915 1989.49 789.053 1996.45 790.78 1998.48C792.507 2000.44 805.926 2014.37 809.388 2017.56C812.842 2020.73 816.847 2027.22 819.751 2029.91C829.681 2038.83 866.247 2070.62 869.777 2073.23C873.307 2075.92 890.748 2087.62 893.889 2088.05C925.298 2092.04 940.715 2074.82 943.898 2069.73C947.115 2064.75 947.725 2062.6 945.743 2055.13C945.701 2055.66 824.492 1964.59 744.064 1789.45C740.948 1782.67 713.052 1748.89 687.442 1769.34C666.413 1786.14 681.618 1826.39 681.618 1826.39V1826.61C689.601 1843.11 713.518 1891.13 721.874 1906.59V1906.59ZM483.892 1923.85C492.002 1893.51 424.739 1900.27 419.888 1899.17C398.917 1933.11 376.66 2048.38 365.324 2102.37C363.36 2108.45 360.718 2118.22 357.611 2130.85C373.019 2146.56 388.839 2161.85 405.055 2176.72C416.764 2131.17 481.741 1931.92 483.892 1923.85V1923.85Z" fill="#F5D4B7"/>
<path d="M2437.68 1135.14C2437.68 1135.21 2437.73 1135.3 2437.73 1135.33C2437.73 1135.33 2437.73 1135.41 2437.78 1135.49C2437.73 1135.42 2437.73 1135.33 2437.73 1135.33C2437.7 1135.27 2437.69 1135.2 2437.68 1135.14" fill="#A3080C"/>
<path d="M2284.84 1569.63C2247.32 1561.33 2158.51 1543.5 2038.76 1532.5C1919.09 1521.61 1821.13 1512.25 1807.66 1510.8C1795.34 1509.57 1790.88 1498.28 1779.68 1492.65C1739.12 1472.32 1662.44 1453.43 1614.4 1436.51C1602.52 1432.41 1594.7 1421.87 1578.3 1401.87C1568.32 1389.68 1561.57 1384.17 1553.04 1376.44C1546.78 1370.81 1540.37 1365.36 1533.82 1360.07C1530.9 1357.72 1528.87 1350.97 1531.39 1337.87C1533.9 1324.71 1541.76 1273.4 1541.11 1213.67C1540.94 1197.63 1548 1187.36 1555.51 1183.61C1559.54 1181.57 1585.83 1169.88 1584.06 1144.04C1582.21 1117.89 1574.12 1081.41 1595.17 1030.06C1615.52 980.316 1640.95 891.524 1644.02 832.947C1647.29 770.721 1631.65 730.583 1607.11 708.85C1597.53 700.452 1586.23 687.761 1595.46 660.67C1605.3 631.521 1623.18 551.914 1605.62 499.255C1601.67 487.563 1597.22 487.487 1594.53 486.073C1591.84 484.702 1579.08 474.932 1574.28 453.445C1567.84 425.117 1547.13 324.438 1469.05 222.091C1427.68 167.756 1383.51 135.441 1365.87 122.42C1353.77 114.555 1332.54 99.7646 1307.15 86.2612C1270.83 67.0516 1241.99 52.3968 1183.99 33.6274C1172.62 30.0803 1161.18 26.7777 1149.68 23.722H1149.49C1149.49 23.722 1100.07 10.498 1046.63 4.25845C1037.51 3.41184 1025.02 2.26045 1010.85 1.29531C955.835 -1.92181 935.753 1.45616 907.146 4.33464C904.09 4.63096 900.975 5.09659 897.901 5.51143C892.195 6.27338 886.294 7.15386 880.123 8.11899C795.123 22.6722 708.65 62.5391 666.59 82.5954C642.843 93.8722 621.839 105.606 602.519 116.612C601.986 116.951 601.3 117.34 600.944 117.552C594.229 121.539 587.435 125.391 580.566 129.108C568.68 135.813 557.318 142.095 546.312 147.471C512.27 164.031 482.325 172.505 460.432 180.1C456.453 181.59 453.126 182.851 450.544 183.732C434.763 189.878 424.705 196.227 422.86 206.7C419.49 225.495 441.612 242.935 433.713 272.914C414.266 346.636 331.053 417.396 317.71 425.558C279.063 449.144 281.476 465.56 279.985 473.958C279.985 481.764 281.586 490.433 286.03 499.797C298.907 527.083 322.731 550.467 334.389 575.128C346.08 599.807 352.743 643.06 343.998 693.62C335.65 742.512 333.034 753.357 328.691 762.322C324.373 771.322 315.662 788.804 327.675 809.597C339.739 830.449 365.163 851.725 381.113 863.958C389.596 870.511 393.99 876.454 387.7 888.264C377.337 907.592 379.987 953.166 389.799 978.665C404.615 1017.57 422.013 1054.65 438.158 1078.48C454.32 1102.3 483.155 1142.83 500.113 1157.49C517.003 1172.25 519.322 1197.83 518.992 1213.7C518.637 1229.49 516.419 1274.26 562.423 1302.27C585.096 1316.21 587.127 1312.7 595.441 1319.54C603.755 1326.25 607.666 1329.74 613.415 1347.86C619.163 1365.92 645.315 1429.24 681.321 1473.81C691.828 1486.76 697.661 1495.94 698.914 1498.06C700.184 1500.18 702.14 1502.53 697.585 1513.2C693.055 1523.87 674.879 1584.64 660.376 1647.46C657.726 1658.98 653.832 1674.12 639.38 1681.23C624.903 1688.21 592.571 1706.08 580.803 1712.58C568.968 1719.09 563.118 1722.63 549.496 1739.57C543.434 1747.11 539.023 1751.52 535.196 1756.12C532.995 1758.78 532.022 1760.49 520.508 1766.49C510.535 1771.66 362.53 1823.74 205.585 1919.76C201.912 1921.96 198.203 1924.11 194.461 1926.19C203.65 1940.63 213.149 1954.86 222.949 1968.89C258.185 1951.07 342.245 1908.46 355.461 1901.88C365.891 1896.62 378.87 1894.58 389.359 1894.32C395.675 1894.2 401.093 1894.72 404.539 1895.57C411.583 1897.3 423.706 1899.98 434.966 1902.54C436.007 1902.77 437.049 1903.03 438.124 1903.25C438.818 1903.42 439.504 1903.56 440.224 1903.77C444.871 1904.93 449.172 1905.94 452.643 1906.87C452.838 1906.95 452.999 1906.95 453.194 1907.04C454.878 1907.52 456.411 1907.93 457.588 1908.29C467.586 1911.58 472.903 1930.33 467.493 1947.4C461.909 1966.57 456.459 1985.79 451.145 2005.04C448.283 2015.32 445.159 2026.64 441.866 2038.65C429.2 2084.57 416.916 2130.6 405.013 2176.72C436.338 2205.28 469.203 2232.16 503.355 2257.41C507.182 2227.84 511.203 2197.04 514.319 2174.64C522.48 2116.19 569.171 1899.67 582.353 1850.44C591.945 1814.62 596.931 1798.29 609.537 1792.65C613.322 1791.01 617.622 1788.49 620.111 1787.27C622.6 1786.12 628.053 1784.8 626.368 1794.29C624.438 1805.55 614.719 1851.5 600.419 2000.58C590.489 2104.01 590.251 2195.62 593.824 2250.72C595.365 2274.18 595.763 2307.34 631.659 2292.95C673.6 2276.2 816.576 2224.94 892.957 2201.4C1015.94 2163.46 1246.46 2112.79 1468.64 2080L1530.76 2071.17C1530.76 2071.17 1567.14 2284.88 1573.4 2321.92L1580.3 2361.12L1573.46 2321.92C1567.15 2284.88 1530.82 2071.17 1530.82 2071.17C1539.51 2069.97 1548.28 2068.86 1556.91 2067.76C1576.81 2065.25 1595.49 2062.9 1613.06 2060.61L1677.95 2052.3C1708.32 2048.42 1734.37 2045.08 1756.44 2042.2C1756.44 2042.2 1798.39 2236.09 1814.15 2305.74C1815.26 2310.32 1816.2 2314.45 1816.98 2317.91L1824.75 2353.5H1824.86L1817.14 2317.91C1804.34 2262.82 1756.58 2042.22 1756.58 2042.22L1823.02 2033.65C1842.66 2031.15 1867.69 2028.01 1875.15 2027.65C1890.76 2027.01 1897.57 2018.17 1885.66 2014.59C1877.05 2012.07 1857.18 2010.09 1847.12 2009.84L1832.13 2009.64C1816.75 2009.38 1812.36 2006.34 1808.98 1983.69C1799.41 1917.2 1762.38 1752.44 1735.78 1665.57C1710.05 1581.77 1703.69 1557.64 1697.5 1539.18C1692.07 1523.29 1702.58 1522.32 1707.62 1522.54C1726.37 1523.43 1752.34 1533.18 1759.79 1549.21C1776.27 1584.96 1889.05 1880.3 1934.31 1990.41C1962.87 2059.77 1996.15 2143.28 2027.58 2217.66C2047.72 2201.11 2067.13 2183.67 2086.16 2165.88C2027.66 2037.28 1897.44 1745.92 1828.78 1598.47C1825.99 1592.27 1823.49 1585.95 1821.28 1579.52C1820.76 1578.07 1820.48 1576.55 1820.45 1575.01C1820.54 1565.6 1832.97 1564.29 1839.13 1564.89C1863.36 1567.32 2083.56 1581.84 2143.69 1587.58C2183.36 1591.33 2222.93 1597.39 2249.37 1602.11C2255.5 1603.24 2260.89 1604.27 2265.45 1605.16C2269.69 1605.95 2273.9 1606.88 2278.08 1607.93C2297.69 1613.05 2332.29 1626.74 2364.33 1643.92C2377.57 1650.98 2392.66 1661.26 2408.82 1673.67C2413.76 1659.85 2418.47 1645.96 2422.95 1632C2410.98 1623.65 2398.56 1615.97 2385.74 1608.99C2349.17 1589.49 2318.3 1577.08 2284.84 1569.63V1569.63ZM491.875 839.423C485.89 841.997 480.48 842.683 476.34 834.521C466.299 814.668 458.671 779.314 455.759 756.345C452.762 733.394 448.173 664.886 449.621 627.457C451.221 590.003 443.906 569.075 430.521 551.161C417.103 533.272 408.476 520.852 405.182 514.824C401.042 507.306 403.811 502.167 411.727 496.427C415.57 493.735 423.418 495.352 429.489 494.091C441.493 491.678 481.58 477.142 511.449 453.716C541.25 430.29 588.745 384.979 620.975 367.539C653.104 350.099 667.369 342.149 704.976 337.637C711.647 336.858 721.654 340.422 710.36 349.015C699.075 357.609 662.882 370.435 620.679 434.117C594.764 473.078 590.539 495.581 582.336 513.063C574.09 530.537 566.208 535.481 553.161 549.628C546.812 556.376 533.876 570.557 529.211 591.121C524.681 611.702 505.946 684.206 516.952 793.867C518.247 806.634 523.505 823.626 511.534 829.806C504.143 833.641 497.802 836.892 491.875 839.423V839.423ZM543.552 987.182C537.177 982.653 511.119 947.375 498.428 908.168C497.031 904.028 495.507 893.496 502.373 890.491C508.003 888.078 515.479 883.743 519.365 881.898C523.301 879.917 533.114 877.343 534.468 891.49C535.84 905.671 537.076 922.383 553.238 964.214C556.167 971.689 556.768 974.026 557.53 977.023C559.621 985.709 549.453 991.382 543.552 987.182V987.182ZM596.635 853.96C594.908 854.256 577.027 856.415 567.385 858.218C561.399 859.319 555.236 861.554 554.55 855.788C553.729 849.892 552.63 844.039 551.257 838.247C550.74 835.817 551.908 833.514 554.804 832.828C561.907 831.186 589.354 826.572 592.004 826.436C594.654 826.402 597.338 827.3 598.489 832.794C599.53 838.306 600.851 844.173 601.164 846.56C601.486 849.015 602.172 853.113 596.635 853.96V853.96ZM606.388 764.405C604.737 756.049 602.426 741.741 603.171 732.835C603.425 729.288 604.5 720.415 608.758 715.632C614.778 708.808 622.778 702.602 627.968 698.403C637.408 690.674 635.444 670.668 636.129 659.188C638.212 625.84 635.249 520.53 703.587 419.775C706.229 415.948 708.904 412.418 711.545 409.082C712.35 408.083 713.154 407.161 713.958 406.179C715.914 403.867 717.878 401.641 719.901 399.583C723.027 396.29 726.328 393.167 729.79 390.228C730.145 389.949 730.459 389.636 730.789 389.348C733.557 387.113 736.334 385.09 739.094 383.168C740.093 382.516 741.092 381.872 742.091 381.288C743.996 380.035 745.918 378.909 747.84 377.817C748.932 377.224 750.015 376.615 751.133 376.048C753.233 374.972 755.391 373.965 757.525 373.008C758.338 372.67 759.133 372.28 759.938 371.908C762.706 370.748 765.551 369.715 768.37 368.75C769.581 368.335 770.749 367.988 771.943 367.615C773.839 367.023 775.727 366.456 777.615 365.931C778.258 365.77 778.851 365.541 779.503 365.38V365.457C793.413 361.748 807.678 359.666 822.087 357.219C862.767 350.311 910.186 356.77 934.577 364.534C953.964 370.672 963.785 375.379 970.27 369.258C976.789 363.162 993.763 343.91 1000.97 337.087C1001.96 336.122 1002.74 335.063 1003.27 334.022C1003.49 333.666 1003.61 333.302 1003.77 332.947C1004.03 332.261 1004.26 331.533 1004.37 330.813C1004.41 330.424 1004.5 330.009 1004.5 329.577C1004.5 328.891 1004.41 328.206 1004.3 327.478C1004.23 327.122 1004.23 326.716 1004.05 326.36C1003.77 325.334 1003.33 324.359 1002.75 323.473C1001.16 320.84 998.648 318.495 995.533 316.624C987.625 311.976 908.23 253.712 801.202 251.105C696.62 248.489 611.738 285.494 589.227 293.241C584.672 294.773 582.336 295.577 579.66 295.611C577.01 295.687 567.884 292.572 571.262 285.977C574.97 278.933 584.249 268.088 593.892 259.3C604.009 250.182 653.493 203.601 702.368 182.03C711.41 178.068 713.611 176.417 719.402 174.165C726.801 171.363 731.178 154.684 714.83 154.642C698.076 154.523 691.405 156.403 682.557 157.783C673.693 159.256 668.825 155.294 674.422 147.7C679.95 140.131 690.88 131.733 710.606 121.023C753.436 97.682 831.781 73.0795 868.82 64.9774C917.12 54.4032 923.02 53.7175 955.073 51.7533C985.052 50.0262 1009.03 52.1428 1020.37 52.5999C1116.4 56.2488 1227 88.0306 1312.62 144.406C1394.02 204.304 1511.19 304.094 1534.41 550.433C1537.19 579.996 1535.24 596.751 1534.1 604.15C1533.09 611.55 1524.69 625.155 1517.32 609.704C1493.03 558.797 1455.47 492.177 1413.1 429.029C1410.58 425.278 1408.03 423.475 1405.95 423.204C1405.16 423.045 1404.33 423.143 1403.6 423.483C1403.42 423.602 1403.29 423.797 1403.08 423.932C1402.63 424.268 1402.24 424.688 1401.94 425.168C1401.77 425.541 1401.58 425.93 1401.46 426.328C1401.26 426.888 1401.13 427.467 1401.07 428.055C1400.98 428.58 1400.89 429.079 1400.89 429.63C1400.89 430.883 1400.97 432.263 1401.34 433.77C1402.4 438.24 1415.89 505.037 1416.38 514.342C1416.97 523.62 1412.43 546.394 1447.02 588.42C1461.16 605.666 1473.7 620.397 1480.14 645.837C1486.49 671.185 1488.66 682.03 1488.69 684.722C1488.79 687.372 1491.83 694.924 1479.6 695C1467.43 695.034 1420.98 691.664 1401.1 692.113C1381.2 692.587 1243.89 706.057 1192.81 716.91C1141.72 727.781 1114.23 740.649 1087.99 768.215C1081.68 774.844 1072.85 781.024 1070.84 781.591C1068.94 782.125 1062.28 781.981 1049.26 781.1C1036.29 780.254 1013.8 783.437 1001.98 788.771C990.097 794.087 981.623 799.031 967.307 793.198C946.844 784.918 911.744 747.117 820.606 751.57C765.745 754.254 737.638 755.753 699.566 761.383C697.348 761.738 695.053 762.068 692.776 762.424C691.328 762.661 689.83 762.89 688.348 763.144C687.544 763.262 686.706 763.381 685.859 763.533C670.358 766.064 652.85 769.324 631.236 773.54C628.239 774.107 625.293 774.717 622.194 775.301C613.779 776.986 607.954 773.21 606.388 764.405V764.405ZM1445.6 740.903C1445.6 743.807 1442.06 746.813 1438.45 747.422C1434.87 747.989 1410.36 750.233 1406.44 750.521C1402.59 750.792 1398.82 748.675 1398.5 745.052C1398.19 741.479 1397.39 733.004 1397.17 730.786C1396.78 728.704 1396.68 725.8 1401.68 725.156C1404.59 724.801 1430.15 722.506 1439.6 721.389C1443.12 720.974 1445.43 724.157 1445.51 727.247C1445.51 730.346 1445.51 738.025 1445.6 740.903V740.903ZM1330.91 768.427C1323.32 763.093 1309.99 754.694 1301.91 751.748C1296.34 749.75 1298.28 742.783 1306.23 741.674C1333.86 737.644 1351.57 737.644 1365.32 746.228C1375.36 752.451 1382.04 764.532 1378.95 775.182C1375.34 787.408 1370.56 784.758 1364.55 784.656C1358.55 784.538 1338.4 773.786 1330.91 768.427ZM1346.88 822.322C1342.03 825.598 1326.13 822.677 1320.36 820.417C1308.51 815.769 1300.1 812.552 1283.63 802.096C1272.87 795.273 1254.17 791.895 1237.8 796.839C1227.01 800.098 1218.34 802.824 1208.84 806.49C1199.33 810.139 1197.38 801.47 1199.87 797.762C1202.33 794.053 1217.39 776.419 1237.37 768.926C1241.57 767.317 1250.12 766.437 1254.32 766.352C1267.19 765.98 1283.15 772.262 1295.24 781.083C1307.42 789.973 1326.79 804.467 1339.51 809.902C1345.46 812.467 1358.41 814.355 1346.88 822.322V822.322ZM949.697 1251.16C901.508 1268.03 887.996 1251.08 883.704 1246.05C879.428 1241.03 884.703 1236.13 889.808 1233.75C901.271 1228.42 916.612 1216.8 924.358 1209.23C932.147 1201.68 947.276 1175.39 958.197 1166.16C963.378 1161.75 991.367 1152.23 1012.42 1162.27C1037.46 1174.2 1076.43 1175.43 1100.37 1172.32C1124.29 1169.1 1133.4 1151.62 1138.59 1141.3C1143.77 1130.89 1156.46 1127.08 1163.13 1124.33C1181.49 1116.82 1205.8 1091.63 1208.29 1089.06C1210.78 1086.41 1218.35 1082.69 1230.4 1089.75C1252.33 1102.63 1263.48 1119.69 1283.83 1142.81C1304.2 1165.96 1328.29 1169.58 1335.35 1170.02C1342.41 1170.47 1346.82 1178.66 1347.14 1180.91C1347.53 1183.16 1341.64 1191 1337.25 1194.29C1332.84 1197.58 1330.41 1203.42 1291.42 1204.34C1095.79 1209.17 1007.76 1230.84 949.697 1251.16V1251.16ZM1215.04 1274.7C1203.43 1280.7 1168.91 1293.71 1151.72 1297.02C1134.48 1300.34 1079.76 1311.43 1070.53 1312.17C1059.03 1313.06 1042.92 1309.61 1028.93 1300.05C1026.12 1298.11 1022.3 1290.59 1032.5 1289.08C1051.43 1286.27 1082 1272.06 1193.17 1266.39C1205.12 1265.79 1210.73 1265.53 1213.59 1265.47C1216.46 1265.41 1226.73 1268.7 1215.04 1274.7V1274.7ZM957.469 1521.53C918.643 1527.93 815.281 1497.6 748.077 1331.75C730.755 1289.09 749.753 1246.64 766.423 1238.07C776.311 1233.05 781.662 1231.01 785.031 1230.16C788.689 1229.24 806.281 1226.94 808.279 1246.74C809.862 1262.75 840.941 1394.19 882.73 1437.66C893.033 1448.42 901.178 1447.76 903.836 1436.64C906.122 1426.44 910.626 1413.02 911.938 1407.9C912.861 1404.21 922.944 1393.06 928.659 1407.27C940.952 1437.43 955.784 1476.9 965.529 1492.7C975.062 1508.12 971.997 1519.12 957.469 1521.53V1521.53ZM965.131 1087.88C968.78 1092.94 971.04 1102.14 970.761 1106.21C970.388 1110.9 954.353 1119.41 937.684 1100.7C921.005 1081.94 924.265 1056.03 931.165 1045.02C942.171 1027.46 963.793 1036.21 961.702 1042.47C954.48 1064.16 961.423 1082.78 965.131 1087.88V1087.88ZM841.229 845.011C828.759 844.605 815.34 843.072 792.575 851.504C767.092 860.919 750.71 873.203 738.857 880.475C726.683 888.07 713.78 891.329 709.463 891.642C705.17 892.015 689.525 889.958 700.302 878.63C703.164 875.531 710.03 873.195 720.452 865.601C727.902 860.114 733.422 856.203 741.896 849.066C757 836.198 787.783 817.598 801.202 815.947C811.048 814.77 828.454 816.633 838.808 825.107C849.585 833.954 853.725 845.409 841.229 845.011V845.011ZM626.808 867.107C628.12 858.946 637.044 837.425 655.847 831.186C658.378 830.424 667.75 827.376 675.581 825.361C683.603 823.354 691.683 821.589 699.811 820.07C713.416 817.699 716.286 828.053 707.719 834.801C702.106 839.271 693.14 845.096 685.216 851.513C673.169 861.367 661.595 872.323 652.647 879.764C641.751 888.84 624.099 883.862 626.808 867.107ZM690.685 1101.46C690.657 1101.43 690.632 1101.41 690.609 1101.38L690.414 1101.09C687.035 1096.31 683.88 1091.38 680.957 1086.31C680.339 1085.19 679.721 1084.04 679.078 1082.93C676.149 1077.5 673.406 1072 671.247 1066.22C667.031 1055.02 674.091 1053.37 678.799 1055.81C683.497 1058.32 697.246 1066.34 711.935 1069.44C720.909 1071.28 726.234 1066.98 728.342 1060.52C728.655 1059.55 729.062 1058.36 729.502 1057.06C729.756 1056.49 729.951 1055.88 730.145 1055.26C730.264 1054.89 730.374 1054.5 730.518 1054.08C730.704 1053.38 730.874 1052.69 731.026 1051.96C731.153 1051.59 731.195 1051.2 731.263 1050.83C731.441 1050.09 731.517 1049.36 731.602 1048.6C731.636 1048.22 731.635 1047.87 731.678 1047.45C731.678 1046.71 731.602 1045.98 731.517 1045.22C731.475 1044.89 731.432 1044.53 731.348 1044.22C731.152 1043.41 730.868 1042.63 730.501 1041.89C730.349 1041.65 730.281 1041.4 730.162 1041.2C729.608 1040.29 728.92 1039.46 728.122 1038.75C726.877 1037.66 725.449 1036.81 723.906 1036.22C711.114 1031.08 674.845 1019.62 647.609 968.972C646.148 966.526 645.592 963.644 646.037 960.83C646.483 958.016 647.902 955.447 650.048 953.572C652.706 951.455 662.188 945.411 666.726 942.608C671.314 939.798 677.529 940.119 684.005 944.589C690.228 949.043 703.748 958.889 714.593 957.932C724.668 956.95 725.675 952.818 727.47 950.202C734.573 939.84 753.817 902.199 804.249 901.59C825.059 901.319 844.548 903.241 851.524 902.809C858.424 902.36 883.035 900.142 897.529 890.279C911.803 880.467 917.89 887.528 909.644 898.263C908.416 899.871 907.307 901.285 906.266 902.699C905.86 903.207 905.546 903.656 905.174 904.13C904.137 905.507 903.16 906.928 902.245 908.388C899.104 913.705 898.714 918.311 904.573 924.626C913.775 934.413 916.171 936.166 919.16 938.477C920.514 939.57 922.195 940.178 923.935 940.204C924.697 940.204 925.543 940.043 926.39 939.814C926.745 939.696 927.093 939.696 927.507 939.544C928.992 938.883 930.372 938.01 931.605 936.953C936.863 932.305 940.393 929.537 944.981 923.61C948.393 919.233 951.28 923.644 950.434 930.493C949.765 935.827 952.161 970.064 914.851 1012.16C913.632 1013.57 910.795 1015.91 907.265 1018.9C906.395 1019.61 905.54 1020.34 904.7 1021.08C904.243 1021.47 903.777 1021.93 903.32 1022.32C902.151 1023.33 900.992 1024.42 899.789 1025.53C898.833 1026.41 897.859 1027.47 896.885 1028.44C895.886 1029.44 894.93 1030.36 893.914 1031.43C893.304 1032.09 892.695 1032.85 892.068 1033.58C890.815 1034.99 889.537 1036.42 888.284 1037.99C887.895 1038.51 887.522 1039.06 887.166 1039.56C885.742 1041.39 884.397 1043.28 883.137 1045.23C881.528 1047.78 880.078 1050.43 878.793 1053.17C868.414 1075.31 869.76 1082.62 868.634 1090.7C867.618 1098.7 861.404 1101.88 854.411 1105.12C850.195 1107.05 839.02 1113.51 826.634 1122.89L826.701 1122.83C822.993 1125.61 819.217 1128.71 815.475 1131.91C814.756 1132.56 814.062 1133.16 813.393 1133.82C809.651 1137.11 805.96 1140.61 802.548 1144.25C800.382 1146.51 798.068 1148.64 795.622 1150.6C794.818 1151.23 794.073 1151.72 793.277 1152.29C791.656 1153.46 789.981 1154.56 788.257 1155.58C787.38 1156.09 786.479 1156.56 785.556 1156.98C783.863 1157.83 782.178 1158.51 780.443 1159.11C779.528 1159.43 778.639 1159.81 777.725 1160.03C777.268 1160.15 776.845 1160.35 776.43 1160.48C775.354 1160.72 774.271 1160.75 773.196 1160.92C771.858 1161.15 770.529 1161.41 769.166 1161.48C767.676 1161.56 766.16 1161.48 764.619 1161.41C763.307 1161.26 761.97 1161.26 760.691 1161.11C759.117 1160.87 757.559 1160.38 756.018 1159.95C754.714 1159.61 753.41 1159.34 752.081 1158.88C750.608 1158.31 749.152 1157.5 747.67 1156.78C746.256 1156.09 744.902 1155.54 743.53 1154.69C743.403 1154.59 743.26 1154.56 743.141 1154.48C740.508 1152.81 737.981 1150.97 735.572 1148.99C728.187 1142.64 721.058 1136.01 714.204 1129.09C714.004 1128.88 713.814 1128.67 713.637 1128.44C709.892 1124.65 706.275 1120.74 702.791 1116.71C702.495 1116.32 694.215 1106.36 690.685 1101.46V1101.46ZM1139.1 1888.06C1136.81 1899.98 1127.08 1940.14 1091.37 2022.82C1088.96 2028.4 1086.61 2033.77 1084.33 2038.96C1083.77 2040.18 1083.21 2041.33 1082.67 2042.57C1081.79 2044.55 1080.87 2046.57 1080 2048.43C1079.91 2048.6 1079.87 2048.75 1079.8 2048.92C1078.51 2051.8 1077.2 2054.49 1075.86 2057.17C1075.86 2057.17 1075.78 2057.25 1075.78 2057.34C1075.61 2057.65 1075.43 2058 1075.22 2058.35C1074.74 2059.29 1074.25 2060.2 1073.78 2061.09C1073.14 2062.29 1072.53 2063.56 1071.85 2064.71C1071.85 2064.84 1071.8 2064.88 1071.77 2064.93C1071.6 2065.19 1071.44 2065.45 1071.3 2065.72L1069.76 2068.39C1069.68 2068.55 1069.57 2068.69 1069.48 2068.86V2068.95C1069.03 2069.61 1068.63 2070.28 1068.23 2070.9C1068.11 2071.12 1068 2071.38 1067.88 2071.56C1067.8 2071.65 1067.74 2071.74 1067.62 2071.87C1067.09 2072.76 1066.5 2073.6 1065.95 2074.53C1065.82 2074.66 1065.71 2074.76 1065.63 2074.88C1064.99 2075.82 1064.34 2076.75 1063.7 2077.63C1063.67 2077.63 1063.57 2077.8 1063.46 2077.85C1062.91 2078.61 1062.33 2079.35 1061.77 2080.06C1061.6 2080.23 1061.5 2080.37 1061.38 2080.45C1060.74 2081.33 1060.05 2082 1059.45 2082.75C1059.36 2082.75 1059.27 2082.87 1059.21 2082.96C1058.85 2083.32 1058.44 2083.67 1058.08 2084.06H1058.05C1057.85 2084.29 1057.64 2084.5 1057.39 2084.69C1057.28 2084.81 1057.09 2084.91 1056.96 2085.08C1056.28 2085.7 1055.63 2086.32 1054.94 2086.77C1054.86 2086.85 1054.82 2086.89 1054.71 2086.95C1054.11 2087.43 1053.48 2087.87 1052.81 2088.26C1052.66 2088.38 1052.5 2088.48 1052.32 2088.57L1052.01 2088.75C1051.87 2088.87 1051.76 2088.93 1051.64 2088.93C1051.16 2089.24 1050.67 2089.51 1050.18 2089.81C1050.18 2089.81 1050.11 2089.81 1050.02 2089.84C1049.39 2090.19 1048.71 2090.42 1047.98 2090.67C1047.81 2090.76 1047.64 2090.84 1047.45 2090.9C1046.68 2091.12 1045.96 2091.34 1045.15 2091.53C1037.74 2093.12 1029.8 2094.26 1025.16 2095.07C1024.48 2095.13 1019.73 2095.93 1019.34 2096.06C1017.4 2096.34 1015.31 2096.66 1013.07 2097.05V2097C959.467 2106.02 813.672 2131.13 746.045 2144.8C701.183 2153.76 705.594 2131.17 694.334 2090.38C689.601 2073.24 672.94 1921.56 681.601 1826.35C684.505 1794.74 685.893 1785.48 691.565 1781.99C697.229 1778.49 705.907 1772.85 708.515 1772.1C711.054 1771.43 718.784 1769.39 722.39 1775.89C725.921 1782.34 791.398 1915.17 834.194 1963.29C872.164 2006.16 898.858 2037.27 930.868 2058.16C932.985 2059.58 934.805 2060.45 936.456 2060.99C936.617 2061.07 936.812 2061.17 936.998 2061.21C937.76 2061.44 938.446 2061.56 939.098 2061.65C939.741 2061.73 940.334 2061.69 940.901 2061.65C941.07 2061.61 941.214 2061.61 941.383 2061.56C942.355 2061.36 943.243 2060.87 943.932 2060.15L944.211 2059.84C944.834 2059.05 945.266 2058.13 945.472 2057.15C945.515 2056.98 945.515 2056.79 945.515 2056.62C946.395 2051.68 944.042 2044.18 939.343 2039.1C932.282 2031.49 903.032 2001.4 864.503 1946.58C814.663 1875.84 780.891 1771.43 771.807 1737.99C765.864 1716.1 762.528 1681.57 763.079 1654.02H763.002C763.045 1652.8 763.079 1651.75 763.146 1650.58L763.273 1647.95C763.394 1643.62 763.713 1639.31 764.23 1635.02C764.357 1634 764.501 1633.09 764.619 1632.11L765.356 1627.43C765.517 1626.55 765.686 1625.75 765.889 1624.96C766.321 1622.84 766.812 1620.89 767.422 1619.18C775.177 1597.02 781.653 1599.4 788.511 1606.83C795.385 1614.32 857.256 1670.47 959.264 1716.17C980.929 1725.88 993.848 1730.33 996.803 1733.52C999.723 1736.61 1004.39 1743.18 995.118 1745.36C985.958 1747.52 958.747 1748.49 930.259 1759.75C928.608 1760.42 927.084 1761.09 925.687 1761.7C915.723 1766.17 911.049 1770.66 908.933 1775.48C908.522 1776.42 908.201 1777.39 907.976 1778.39C907.798 1779.05 907.637 1779.84 907.561 1780.55C907.434 1781.64 907.392 1782.74 907.434 1783.84C907.434 1784.56 907.392 1785.31 907.468 1786.05C907.553 1787.46 907.705 1788.88 907.858 1790.38C908.196 1792.89 908.543 1795.48 908.797 1798.32C910.304 1813.78 912.98 1824.81 914.944 1845.49C916.866 1866.24 915.672 1884.99 925.789 1893.74C935.872 1902.38 949.638 1907.51 986.406 1900.37C1021.29 1893.56 1032.9 1890.6 1037.03 1890.48C1041.09 1890.35 1050.88 1888.71 1044.9 1900.13C1044.33 1901.23 1043.59 1902.56 1042.71 1904.18C1034.66 1918.5 1015.18 1950.76 1008.55 1972.26C1001.19 1995.95 999.698 2002.51 999.055 2006.55C998.462 2010.62 1001.27 2018.47 1008.51 2009.69C1015.73 2000.9 1030.03 1968.14 1065.95 1926.44C1070.34 1921.38 1074.8 1916.38 1079.34 1911.44C1079.37 1911.44 1079.41 1911.36 1079.5 1911.27C1082.75 1907.78 1085.77 1904.6 1088.66 1901.69C1089.46 1900.86 1090.23 1900.12 1091 1899.4L1097.89 1892.73C1102.85 1888.06 1108.08 1883.7 1113.56 1879.66C1113.97 1879.43 1114.32 1879.17 1114.69 1878.92C1116.24 1877.77 1117.77 1876.74 1119.19 1875.9C1119.58 1875.68 1119.99 1875.39 1120.38 1875.11C1121.8 1874.23 1123.13 1873.52 1124.37 1872.82C1124.56 1872.65 1124.87 1872.51 1125.09 1872.39C1125.26 1872.34 1125.37 1872.22 1125.48 1872.16C1126.94 1871.5 1128.15 1870.79 1129.38 1870.22C1139.41 1865.31 1142.14 1872.17 1139.1 1888.06V1888.06ZM1198.57 2070.59C1192.81 2071.92 1167.94 2075.7 1164.1 2075.75C1160.32 2075.85 1157.1 2072.31 1158.71 2069.58C1160.31 2066.92 1177.43 2044.65 1186.83 2005.88C1188.42 1999.56 1192.37 1995.16 1194.94 2004.24C1196.92 2010.87 1204.59 2043.83 1206.36 2056.23C1206.63 2058.4 1207.96 2068.39 1198.57 2070.59V2070.59ZM1209 1754.42C1192.66 1760.55 1174.49 1742.19 1159.78 1732.38C1126.73 1709.78 1096.32 1688.01 1071.37 1657.52C1033.16 1610.86 1036.73 1578.34 1047.83 1518.07C1055.54 1475.25 1041.55 1435 1038.51 1429.32C1035.48 1423.64 1038.9 1417.86 1047.94 1422.09C1056.97 1426.34 1065.62 1439.53 1074.89 1450.83C1084.1 1462.13 1086.14 1454.1 1086.9 1446.42C1088.66 1428.69 1084.66 1414.49 1082.45 1406.25H1082.4C1082.28 1405.82 1082.18 1405.37 1082.1 1404.93C1080.8 1400.02 1076.23 1389.07 1066.61 1387.08C1053.73 1384.37 1041.06 1383.23 1034.19 1378.28C1030.99 1375.99 1027.35 1371.27 1030.95 1367.83C1037.52 1361.47 1047.05 1353.04 1056.11 1349.94C1068.43 1345.71 1080.27 1339.26 1095.87 1339.35C1201.17 1340.02 1229.57 1315.65 1269.83 1298.96C1277.72 1295.64 1282.44 1294.17 1289.21 1296.29C1296 1298.33 1314.41 1305.25 1319.05 1313.42C1323.71 1321.64 1324.53 1355.85 1333.53 1380.53C1342.4 1405.28 1357.49 1379.63 1360.81 1369.04C1363.99 1358.4 1365.23 1333.1 1365.4 1326.7C1365.57 1320.3 1367.43 1293.31 1375.9 1284.21C1392.73 1266.23 1396.7 1244.97 1398.73 1236.65C1400.53 1229.19 1401.96 1208.34 1398.26 1178.72C1397.86 1175.07 1397.33 1171.24 1396.67 1167.32C1390.98 1131.6 1383.8 1128.57 1374.1 1122.08C1364.39 1115.6 1354.21 1118.42 1329.48 1101.47C1307.36 1086.24 1287.27 1059.64 1270.5 1043.41C1253.81 1027.21 1227.43 1010.91 1199.59 1008.04C1198.02 1007.9 1196.45 1007.84 1194.88 1007.85H1194.56C1193.33 1007.92 1192.16 1008.02 1191.16 1008.22C1190.96 1008.25 1190.85 1008.34 1190.63 1008.39C1189.81 1008.53 1189.02 1008.76 1188.26 1009.06C1188.08 1009.2 1187.88 1009.32 1187.67 1009.4C1187.14 1009.71 1186.61 1010.01 1186.18 1010.35C1185.99 1010.55 1185.83 1010.74 1185.61 1010.96C1185.29 1011.27 1185 1011.62 1184.77 1012C1184.57 1012.28 1184.45 1012.61 1184.28 1012.93C1184.17 1013.27 1183.99 1013.54 1183.91 1013.85C1183.76 1014.34 1183.66 1014.84 1183.6 1015.34C1183.6 1015.54 1183.57 1015.7 1183.57 1015.91C1183.52 1016.59 1183.52 1017.3 1183.6 1018.02H1183.57C1184.13 1024.91 1189.09 1033.31 1190.35 1036.76C1192.12 1041.45 1196.57 1055.79 1188.67 1064.15C1180.71 1072.5 1134.18 1114.13 1090.61 1113.09C1070.91 1112.64 1054.48 1108.59 1040.69 1102.71C1040.76 1102.77 1040.81 1102.84 1040.86 1102.92C1040.28 1102.67 1039.78 1102.36 1039.18 1102.08C1035.97 1100.66 1032.84 1099.1 1029.78 1097.4C1029.3 1097.13 1028.74 1096.89 1028.2 1096.6C1025 1094.74 1021.88 1092.73 1018.87 1090.58L1016.3 1088.65C1014.13 1087.01 1012.02 1085.28 1009.98 1083.47C1009.4 1082.93 1008.72 1082.41 1008.14 1081.89C1005.77 1079.63 1003.57 1077.42 1001.51 1075.22C1001 1074.61 1000.55 1074.04 1000.04 1073.49C998.453 1071.67 997.023 1069.86 995.626 1068.1C995.194 1067.53 994.779 1067.03 994.39 1066.45C992.897 1064.38 991.48 1062.25 990.14 1060.08C989.97 1059.82 989.886 1059.63 989.725 1059.39C988.65 1057.53 987.727 1055.76 986.914 1054.15C986.719 1053.72 986.508 1053.33 986.305 1052.87C985.562 1051.3 984.909 1049.69 984.349 1048.05C977.991 1028.92 993.78 983.72 993.221 951.354C993.027 937.173 990.097 909.963 987.922 891.084C985.754 872.196 995.71 846.772 1000.34 840.609C1001.61 839.095 1003.1 837.775 1004.75 836.689C1005.21 836.35 1005.72 836.079 1006.2 835.766C1007.88 834.665 1009.81 833.624 1012 832.667L1012.96 832.176C1015.1 831.296 1017.38 830.373 1019.86 829.569V829.687C1023.92 828.29 1028.3 826.995 1033.09 825.92C1048.61 822.466 1066.75 830.144 1071.41 842.954C1087.64 887.638 1105.61 897.078 1111.63 899.998C1117.74 902.978 1127.34 894.131 1131.11 890.872C1134.89 887.714 1144.01 875.726 1139.96 870.469C1133.72 862.485 1130.3 857.583 1128.5 852.597C1125.45 844.164 1136.47 843.987 1139.08 845.163C1172.29 859.234 1188.2 862.189 1220.35 861.113C1252.45 860.114 1302.37 838.966 1308.55 838.848C1313.59 838.729 1323.54 841.828 1327.28 847.009C1327.9 847.889 1328.73 849.142 1329.52 850.378C1332.75 855.162 1337.06 861.579 1340.9 862.917C1341.08 862.951 1341.18 863.035 1341.33 863.078C1346.09 864.254 1357.42 863.391 1363.42 863.645C1371.54 863.924 1385.63 861.113 1385.23 876.022C1384.34 915.83 1352.87 940.661 1350.01 943.074C1348.9 944.073 1348.27 945.351 1347.71 946.647C1347.55 947.002 1347.25 947.375 1347.19 947.764C1346.8 949.086 1346.77 950.49 1347.1 951.828C1347.85 954.198 1351.25 962.791 1352.71 965.128C1353.23 965.975 1353.85 966.779 1354.66 967.541C1354.84 967.736 1355.18 967.897 1355.4 968.108C1356.03 968.582 1356.65 969.031 1357.36 969.344C1357.71 969.539 1358.2 969.581 1358.6 969.717C1359.31 969.913 1360.04 970.004 1360.77 969.988C1361.24 969.988 1361.83 969.827 1362.3 969.717C1363.49 969.463 1364.58 969.226 1365.83 968.464C1392.5 952.514 1403.35 933.66 1414.96 909.963C1426.53 886.376 1432.62 808.48 1433.28 795.704C1433.94 782.836 1438 774.928 1444.31 769.756C1450.58 764.557 1481.73 744.603 1486.13 743.587C1490.6 742.546 1495.7 742.114 1500.73 753.729C1505.84 765.421 1516.97 837.239 1519.09 848.279C1521.48 860.013 1527.57 858.616 1530.62 856.364C1537.29 851.496 1542.11 845.51 1548.06 835.317C1554.19 825.116 1549.69 811.045 1543.74 804.492C1537.86 797.905 1528.54 787.382 1532.51 776.935C1541.54 753.196 1560.5 754.39 1565.58 755.236C1570.58 756.083 1589.79 764.735 1593.27 816.463C1598.29 893.09 1567.04 972.324 1559.58 992.414C1543.11 1037.08 1539.65 1067.49 1537.11 1081.97C1534.63 1096.39 1523.68 1093.78 1521.06 1091.44C1518.4 1089.11 1514.97 1077.95 1513.29 1076.3C1511.57 1074.65 1507.24 1075.49 1504.41 1087.79C1501.59 1100.07 1492.19 1117.12 1486.66 1126.4C1482.97 1132.42 1483.66 1141.05 1484.54 1147.76C1486.19 1160.79 1492.98 1210.64 1490.91 1267.31C1487.15 1368.14 1453.44 1431.65 1428.29 1464.9C1369.13 1543.13 1313.66 1575.83 1306.99 1580.47C1298.42 1586.44 1284.11 1585.51 1279.32 1583.92C1274.45 1582.55 1270.17 1577.52 1261.07 1571.03C1260.33 1570.45 1259.58 1570.13 1258.96 1569.79C1251.73 1566.45 1250.64 1576.64 1250.71 1579.29C1250.79 1582.11 1255.16 1592.59 1257.64 1602.74C1262.37 1621.9 1251.73 1645.03 1240.78 1663.3C1225.16 1689.13 1207.73 1717.53 1211.37 1748.73C1211.33 1751.5 1211.33 1753.53 1209 1754.42V1754.42ZM1710.34 1784.25C1719.26 1835.5 1729.29 1897.96 1740.62 1974.52C1741.21 1978.56 1741.64 1982.02 1741.96 1985.24C1742.04 1985.63 1742.13 1986.08 1742.13 1986.46C1742.44 1989.48 1742.61 1992.25 1742.61 1994.5C1742.61 1994.73 1742.57 1994.95 1742.57 1995.12C1742.57 1996.14 1742.57 1997.24 1742.48 1998.12C1742.37 1998.91 1742.22 1999.69 1742.04 2000.47C1742.04 2000.77 1741.96 2001.08 1741.96 2001.36C1741.62 2002.79 1741.07 2004.15 1740.32 2005.4C1740.24 2005.58 1740.09 2005.71 1739.92 2005.94C1739.29 2006.81 1738.53 2007.58 1737.67 2008.23L1736.84 2008.86C1735.68 2009.58 1734.44 2010.16 1733.13 2010.58C1732.79 2010.74 1732.27 2010.79 1731.81 2010.97C1730.7 2011.33 1729.51 2011.64 1728.19 2012C1727.37 2012.17 1726.56 2012.31 1725.73 2012.53L1720.21 2013.62C1716.58 2014.37 1711.29 2015.13 1707.62 2015.43C1701.26 2016.05 1693.84 2016.68 1685.77 2017.39C1607.68 2024.53 1454.87 2040.03 1332.46 2055.44C1330.16 2055.66 1327.79 2055.92 1325.28 2056.32C1315.74 2057.65 1310.22 2056.14 1309.46 2046.78C1308.88 2038.18 1294.55 1953.2 1251.29 1880.81C1247.31 1874.11 1243.11 1867.56 1238.69 1861.16C1233.75 1854.05 1241.08 1848.64 1248.06 1851.11C1267.67 1857.99 1321.97 1882.85 1399.43 1938.28C1419.2 1952.41 1424.34 1956.81 1428.78 1960.57C1429.37 1961.09 1430.28 1961.59 1431.09 1961.99C1431.4 1962.15 1431.76 1962.22 1432.15 1962.38C1432.67 1962.57 1433.37 1962.77 1434.03 1962.93C1434.4 1963 1434.75 1963.09 1435.09 1963.1C1435.84 1963.2 1436.58 1963.23 1437.26 1963.2H1438.1C1438.97 1963.08 1439.81 1962.8 1440.57 1962.35C1442.37 1961.22 1443.2 1959.02 1441.8 1955.21C1436.98 1941.63 1411.07 1914.96 1344.8 1853.46C1335.35 1844.72 1335.19 1841.02 1344.99 1840C1354.75 1839.08 1381.32 1840.27 1395.45 1839.69C1409.62 1839.08 1441.23 1838.19 1435.03 1796.81C1430.28 1764.76 1426.57 1731.61 1425.98 1721.69C1425.45 1711.8 1423.71 1693.3 1400.56 1690.69C1377.56 1688.05 1339 1693.39 1304.41 1705.51C1294.87 1708.83 1291.5 1704.42 1298.56 1697.98C1305.59 1691.58 1366.32 1652.06 1418.08 1592.64C1474.98 1527.2 1499.99 1479.05 1514.2 1435.27C1516.77 1427.5 1520.05 1430.15 1523.23 1431.92C1526.37 1433.78 1547.72 1451.03 1555.29 1493.47C1562.69 1536 1577.41 1595.02 1551.49 1750C1537.23 1834.89 1519.82 1885.04 1515.77 1897.01C1511.7 1908.85 1518.68 1915.53 1526.52 1904.91C1544.81 1879.94 1568.99 1810.74 1589.4 1731.18C1609.49 1652.67 1616.77 1585.36 1619.85 1542.22V1542.18C1620.16 1538.22 1620.43 1534.49 1620.63 1530.92L1620.76 1529.47C1620.93 1525.98 1621.11 1522.62 1621.34 1519.62C1621.34 1517.78 1621.57 1516.32 1621.88 1514.99C1621.97 1514.6 1622.11 1514.28 1622.24 1513.94C1622.42 1513.34 1622.59 1512.69 1622.8 1512.21C1622.8 1512.12 1622.91 1512.12 1622.91 1512.04C1623.26 1511.38 1623.69 1510.76 1624.18 1510.18C1624.32 1510.02 1624.41 1509.87 1624.54 1509.79C1624.92 1509.44 1625.28 1509.28 1625.63 1509.09C1625.91 1508.97 1626.17 1508.78 1626.44 1508.69C1626.66 1508.65 1626.83 1508.65 1627.05 1508.61C1627.49 1508.53 1627.93 1508.44 1628.31 1508.44C1628.46 1508.44 1628.61 1508.44 1628.81 1508.53H1629.4C1629.55 1508.53 1629.63 1508.65 1629.7 1508.65C1631.29 1508.92 1632.72 1509.55 1633.83 1510.02C1637.88 1511.61 1655.76 1516.77 1665.08 1559.69C1665.47 1561.42 1665.87 1563.3 1666.33 1565.16C1666.41 1565.79 1666.54 1566.49 1666.72 1567.12C1667.16 1568.85 1667.56 1570.57 1667.96 1572.46L1668.06 1572.77C1675.78 1606.55 1689.79 1664.94 1710.34 1784.25Z" fill="black"/>
<path d="M1380.22 1857.37H1388.93V1879.58H1394.18V1857.37H1402.86V1852.91H1380.22V1857.37ZM1421.73 1871.98L1415.02 1852.91H1407.45V1879.58H1412.32V1858.12L1419.74 1879.58H1424.01L1431.31 1858.12V1879.58H1436.17V1852.91H1428.6L1421.73 1871.98Z" fill="black"/>
</g>
<defs>
<clipPath id="clip0_105_74">
<rect width="2480" height="2500" fill="white"/>
</clipPath>
</defs>
</svg>
