<svg width="2500" height="2500" viewBox="0 0 2500 2500" fill="none" xmlns="http://www.w3.org/2000/svg">
<path fill-rule="evenodd" clip-rule="evenodd" d="M0 0H2500V2500H0V0Z" fill="white"/>
<path fill-rule="evenodd" clip-rule="evenodd" d="M1298.73 932.876C1314.68 901.736 1364.74 860.79 1407.62 849.403H1012.47C1075.4 885.316 1087.13 913.759 1041.3 1003.57L785.799 1504.36L577.414 1080.45C514.212 951.89 469.155 894.732 559.243 849.403H360.326C438.962 882.385 469.337 951.877 501.217 1018.98L868.118 1791.53C1008.46 1526.48 1163.83 1195.88 1298.73 932.876V932.876Z" fill="#212121"/>
<path fill-rule="evenodd" clip-rule="evenodd" d="M110.282 1502.47V1484.04H119.218C128.894 1484.04 135.625 1480.08 139.399 1472.17C143.173 1464.27 145.106 1451.77 145.106 1434.51V1170.16C145.106 1151.55 143.082 1138.6 138.932 1131.42C134.795 1124.23 127.973 1120.63 118.673 1120.63H110.282V1102.2H298.344V1120.63H288.863C281.872 1120.63 276.502 1122.69 272.832 1126.83C269.149 1130.95 266.697 1136.55 265.465 1143.54C264.233 1150.56 263.533 1159.47 263.533 1170.15V1279.18H267.32L344.62 1215.45C363.439 1199.94 395.059 1167.75 411.621 1149.29C417.678 1142.55 423.385 1133.38 417.056 1128.8C410.804 1124.26 401.025 1121.52 387.939 1120.63V1102.2H513.888V1120.63C506.807 1120.63 499.699 1121.88 492.514 1124.4C485.329 1127.02 477.235 1131.72 468.286 1138.43C459.285 1145.19 448.689 1155.1 435.849 1167.46L398.418 1203.5C428.832 1281.35 470.18 1379.22 504.316 1456.09C507.183 1462.55 513.071 1466.87 517.948 1471.37C522.746 1475.96 528.648 1480.19 535.47 1484.05V1502.48H342.947V1484.05H348.653C352.427 1484.05 355.385 1482.89 357.499 1480.46C359.703 1478.13 360.819 1474.62 360.819 1470.12C360.819 1467.61 360.443 1465.27 359.716 1463.02C358.844 1460.39 357.764 1457.83 356.487 1455.38C355.034 1452.48 354.088 1450.38 353.452 1449L287.747 1308.79L263.507 1330.17V1434.51C263.507 1451.74 265.374 1464.29 269.045 1472.17C272.702 1480.07 279.55 1484.04 289.394 1484.04H298.331V1502.47H110.282ZM1252.48 1502.47V1484.04H1261.97C1273.11 1484.04 1280.13 1479.9 1282.97 1471.54C1285.84 1463.17 1287.3 1450.86 1287.3 1434.51V1170.16C1287.3 1153.8 1285.84 1141.48 1282.97 1133.13C1280.13 1124.76 1273.11 1120.64 1261.97 1120.64H1252.48V1102.21H1455.48V1120.64H1447.1C1439.18 1120.64 1433.28 1122.7 1429.4 1126.93C1425.55 1131.16 1423.15 1136.83 1422.12 1143.83C1421.11 1150.85 1420.66 1159.65 1420.66 1170.17V1434.52C1420.66 1445.05 1421.11 1453.85 1422.12 1460.86C1423.13 1467.88 1425.55 1473.53 1429.4 1477.76C1433.28 1481.99 1439.18 1484.05 1447.1 1484.05H1455.48V1502.48H1252.48V1502.47V1502.47ZM1533.65 1502.47V1484.04H1540.11C1546.09 1484.04 1551.43 1480.62 1556.14 1473.79C1560.92 1466.96 1563.34 1455.45 1563.34 1439.28V1157.21C1554.85 1145.26 1546.92 1136.18 1539.55 1129.98C1532.18 1123.78 1523.34 1120.63 1513.1 1120.63V1102.2H1697.31L1881.39 1293.73V1185.44C1881.39 1164.13 1879.45 1148.04 1875.49 1137.07C1871.54 1126.11 1862.04 1120.63 1847.12 1120.63H1840.93V1102.2H1961V1120.63H1956.4C1948.47 1120.63 1942.29 1122.78 1937.77 1127.1C1933.26 1131.42 1930.15 1138.08 1928.55 1147.05C1926.98 1156.1 1926.17 1168.94 1926.17 1185.42V1537.28L1894.12 1502.44L1606.42 1190.91L1604.3 1213.28V1411.84C1604.3 1429.1 1605.03 1442.58 1606.6 1452.38C1608.17 1462.28 1611.6 1469.99 1617.02 1475.57C1622.36 1481.24 1630.84 1484.01 1642.37 1484.01H1648.53V1502.44H1533.65V1502.47V1502.47ZM2090.05 1502.47V1484.04H2105.46C2117.16 1484.04 2124.62 1479.99 2127.75 1471.9C2130.87 1463.9 2132.44 1451.39 2132.44 1434.6V1138.78H2124.89C2107.29 1138.78 2091.8 1142.2 2078.46 1149.12C2065.59 1155.63 2054.54 1165.24 2046.29 1177.07C2038.32 1188.59 2032.89 1201.67 2030.35 1215.45H2008.8L2013.69 1102.2H2384.54L2389.71 1215.45H2368.15C2364 1193.59 2353.69 1175.36 2337.19 1160.7C2320.69 1146.05 2299.5 1138.77 2273.61 1138.77H2265.78V1434.59C2265.78 1447.17 2266.41 1456.88 2267.8 1463.61C2269.16 1470.36 2271.93 1475.48 2276.18 1478.89C2280.41 1482.31 2286.49 1484.03 2294.42 1484.03H2308.42V1502.46H2090.05V1502.47V1502.47ZM907.948 959.957C923.507 975.433 935.852 993.832 944.275 1014.1C952.697 1034.36 957.031 1056.09 957.026 1078.03C957.026 1170.03 882.009 1245.05 790.014 1245.05C698.02 1245.05 623.016 1170.03 623.016 1078.03C623.016 1029.07 644.286 984.911 678.033 954.315C727.396 890.919 766.215 812.128 791.208 708.473C816.187 823.658 863.255 889.778 907.948 959.957ZM790.741 1060.16C792.907 1060.16 795.021 1060.47 797.018 1061.04L796.927 1060.95L814.8 1036.31L797.848 1023.96L806.771 996.415L815.772 968.854H873.721L882.709 996.415L891.645 1023.96L868.196 1041.02L844.721 1058.05L827.769 1045.67L809.871 1070.36L809.677 1070.21C811.998 1073.71 813.438 1077.87 813.554 1082.29L841.452 1091.35L847.963 1071.37H905.925L914.848 1098.92L923.797 1126.54L900.387 1143.56L876.912 1160.56L853.475 1143.54L830.039 1126.54L836.55 1106.58L808.431 1097.42C805.584 1100.96 801.746 1103.57 797.407 1104.92V1133.75H818.405L827.328 1161.3L836.291 1188.85L812.88 1205.89L789.379 1222.93L765.968 1205.89L742.532 1188.85L751.442 1161.3L760.443 1133.75H781.415V1103.91C777.487 1102.13 774.141 1099.28 771.766 1095.69L743.479 1104.92L749.951 1124.87L726.527 1141.9L703.078 1158.9L679.603 1141.9L656.192 1124.87L665.128 1097.28L674.065 1069.73L703.078 1069.71L732.027 1069.73L738.55 1089.67L767.512 1080.24L767.901 1081.56C768.251 1076.75 770.093 1072.35 772.894 1068.81L772.155 1069.33L754.257 1044.69L737.279 1057.01L713.843 1039.99L690.355 1022.96L699.304 995.404L708.253 967.817H737.266L766.228 967.83L775.19 995.404L784.113 1022.96L767.201 1035.27L785.086 1059.93L782.79 1061.55C785.267 1060.68 787.991 1060.16 790.741 1060.16V1060.16Z" fill="#212121"/>
</svg>
