<svg width="2500" height="2500" viewBox="0 0 2500 2500" fill="none" xmlns="http://www.w3.org/2000/svg">
<path fill-rule="evenodd" clip-rule="evenodd" d="M0 0H2500V2500H0V0Z" fill="white"/>
<path fill-rule="evenodd" clip-rule="evenodd" d="M36.7563 944.329H162.213L1573.26 679.304H1998.65L2461.29 944.329H2463.23V1197.19H36.7563V944.329ZM290.199 944.329H2408.6L1997.07 701.431H1574.01L290.199 944.329ZM930.295 914.913L1643.33 726.45L1658.88 740.055L955.547 932.396C955.547 932.396 928.363 911.022 930.295 914.913ZM1598.65 907.131L1771.57 718.681L1798.78 722.572L1629.74 909.09C1629.73 909.077 1594.78 901.308 1598.65 907.131V907.131ZM1888.14 726.45L1913.39 724.504L1965.85 903.253L1934.78 901.308L1888.14 726.45ZM228.852 980.553C279.732 980.553 321.248 1022.06 321.248 1072.95C321.248 1123.84 279.745 1165.35 228.852 1165.35C177.958 1165.35 136.455 1123.84 136.455 1072.95C136.455 1022.06 177.958 980.553 228.852 980.553ZM569.23 980.553C620.123 980.553 661.627 1022.06 661.627 1072.95C661.627 1123.84 620.123 1165.35 569.23 1165.35C518.35 1165.35 476.833 1123.84 476.833 1072.95C476.833 1022.06 518.35 980.553 569.23 980.553ZM909.622 980.553C960.502 980.553 1002.02 1022.06 1002.02 1072.95C1002.02 1123.84 960.515 1165.35 909.622 1165.35C858.728 1165.35 817.225 1123.84 817.225 1072.95C817.225 1022.06 858.728 980.553 909.622 980.553ZM1250 980.553C1300.89 980.553 1342.4 1022.06 1342.4 1072.95C1342.4 1123.84 1300.91 1165.35 1250 1165.35C1199.11 1165.35 1157.6 1123.84 1157.6 1072.95C1157.6 1022.06 1199.12 980.553 1250 980.553ZM1590.39 980.553C1641.28 980.553 1682.78 1022.06 1682.78 1072.95C1682.78 1123.84 1641.28 1165.35 1590.39 1165.35C1539.5 1165.35 1498.01 1123.84 1498.01 1072.95C1498.01 1022.06 1539.5 980.553 1590.39 980.553ZM1930.77 980.553C1981.66 980.553 2023.18 1022.06 2023.18 1072.95C2023.18 1123.84 1981.66 1165.35 1930.77 1165.35C1879.88 1165.35 1838.39 1123.84 1838.39 1072.95C1838.39 1022.06 1879.88 980.553 1930.77 980.553ZM2271.17 980.553C2322.04 980.553 2363.56 1022.06 2363.56 1072.95C2363.56 1123.84 2322.04 1165.35 2271.17 1165.35C2220.28 1165.35 2178.76 1123.84 2178.76 1072.95C2178.76 1022.06 2220.28 980.553 2271.17 980.553ZM44.4734 1809.2V1260.45H163.64V1708.29H311.767V1809.2H44.4734ZM390.092 1377.16H508.96V1587.3C508.96 1618.24 509.777 1640.4 511.307 1653.9C512.941 1667.28 515.587 1678.57 519.452 1687.65C523.927 1698.62 531.994 1707.08 543.303 1712.93C554.626 1718.68 568.478 1721.59 584.794 1721.59C601.11 1721.59 614.858 1718.68 626.18 1712.93C637.399 1707.08 645.44 1698.61 650.135 1687.65C654.013 1678.59 656.659 1667.29 658.293 1653.9C659.824 1640.4 660.641 1618.24 660.641 1587.3V1377.16H779.185V1605.64C779.185 1652.98 776.331 1687.92 770.521 1710.49C764.723 1733.06 755.022 1752.22 741.274 1768.22C726.398 1785.65 705.802 1798.84 679.797 1807.61C653.702 1816.38 622.004 1820.71 584.794 1820.71C547.389 1820.71 515.678 1816.38 489.686 1807.61C463.682 1798.84 443.099 1785.65 428.002 1768.22C414.449 1752.22 404.76 1733.06 398.859 1710.49C393.049 1687.92 390.079 1652.98 390.079 1605.64V1377.16H390.092V1377.16ZM1100.47 1650.05V1559.5H1334.64C1334.85 1562.44 1335.04 1565.75 1335.15 1569.28C1335.25 1572.8 1335.25 1578.04 1335.25 1584.88C1335.25 1659.33 1315.37 1717.05 1275.72 1758.05C1235.95 1799.06 1180.09 1819.61 1108.02 1819.61C1072.55 1819.61 1041.04 1814.37 1013.52 1803.8C985.897 1793.3 961.215 1777.19 939.621 1755.54C918.817 1734.89 902.812 1710.4 891.295 1682.2C879.886 1654.01 874.071 1623.86 874.175 1593.44C874.175 1561.22 879.791 1531.6 890.893 1504.51C901.995 1477.41 918.61 1453.13 940.736 1431.47C962.397 1410.6 988.061 1394.32 1016.18 1383.63C1044.51 1372.84 1075.09 1367.42 1108.02 1367.42C1150.85 1367.42 1188.65 1375.78 1221.58 1392.5C1254.5 1409.22 1282.23 1434.09 1304.77 1467.15L1201.39 1516.09C1189.06 1499.37 1175.19 1486.98 1159.8 1478.83C1144.31 1470.67 1127.07 1466.54 1108.01 1466.54C1072.34 1466.54 1044.3 1478.32 1023.81 1501.81C1003.32 1525.36 993.03 1557.51 993.03 1598.2C993.03 1639.31 1003.32 1671.74 1023.81 1695.32C1044.3 1718.97 1072.34 1730.78 1108.01 1730.78C1138.19 1730.78 1163.47 1723.41 1183.65 1708.71C1203.84 1694.1 1215.66 1674.57 1219.03 1650.08H1100.47V1650.05V1650.05ZM1546.83 1647.74H1665.41L1620.84 1505.21C1618.78 1498.28 1616.91 1491.29 1615.24 1484.26C1612.79 1474.69 1609.72 1462.3 1605.94 1447.08C1603.52 1457.25 1600.97 1467.39 1598.29 1477.5C1595.93 1486.78 1593.42 1496.02 1590.77 1505.22L1546.83 1647.74V1647.74ZM1379.87 1809.2L1530.74 1377.16H1680.08L1831.15 1809.2H1712.57L1690.48 1731.84H1521.13L1498.41 1809.2H1379.87ZM2236.8 1809.2H1850.34L2071.06 1470.75H1893.9V1377.14H2261.89L2041.8 1715.02H2236.8V1809.2ZM2335.62 1809.2V1241H2456.02V1809.2H2335.62ZM1965.45 1242.59H2012.89L2105.07 1309.76L2203.15 1244.9H2253.94L2154.69 1341.05H2064.7L1965.45 1242.59V1242.59Z" fill="#212121"/>
</svg>
