<svg width="2500" height="2500" viewBox="0 0 2500 2500" fill="none" xmlns="http://www.w3.org/2000/svg">
<path fill-rule="evenodd" clip-rule="evenodd" d="M0 0H2500V2500H0V0Z" fill="white"/>
<path fill-rule="evenodd" clip-rule="evenodd" d="M110.295 878.39H2389.71V1621.61H110.295V878.39Z" fill="#212121"/>
<path fill-rule="evenodd" clip-rule="evenodd" d="M2044.33 1114.32L2075.59 1118.3C2072.22 1139.26 2063.48 1155.71 2049.33 1167.56C2035.27 1179.43 2017.94 1185.36 1997.4 1185.36C1971.72 1185.36 1951.02 1177.2 1935.44 1160.88C1919.78 1144.56 1911.94 1121.13 1911.94 1090.59C1911.94 1070.86 1915.34 1053.61 1922.04 1038.81C1928.8 1024.01 1938.99 1012.91 1952.77 1005.53C1966.54 998.122 1981.96 994.303 1997.6 994.431C2017.99 994.431 2034.74 999.489 2047.63 1009.53C2060.62 1019.57 2068.96 1033.78 2072.66 1052.28L2041.67 1056.91C2038.69 1044.64 2033.52 1035.42 2026.02 1029.19C2018.52 1023.02 2009.48 1019.9 1998.84 1019.9C1982.78 1019.9 1969.73 1025.49 1959.69 1036.7C1949.69 1047.85 1944.67 1065.53 1944.67 1089.72C1944.67 1114.27 1949.49 1132.12 1959.21 1143.27C1968.89 1154.36 1981.51 1159.94 1997.08 1159.94C2009.6 1159.94 2019.96 1156.18 2028.34 1148.72C2036.78 1141.26 2042.1 1129.82 2044.33 1114.32V1114.32ZM1859.99 1181.25V998.594H1891.89V1181.25H1859.99ZM1859.99 964.717V929.076H1891.89V964.717H1859.99ZM1500.29 1181.25V998.594H1528.97V1024.55C1542.79 1004.47 1562.71 994.418 1588.74 994.418C1599.45 994.306 1610.06 996.326 1619.98 1000.36C1629.5 1004.35 1636.59 1009.51 1641.26 1015.97C1646.04 1022.38 1649.31 1030.02 1651.25 1038.81C1652.41 1044.56 1653 1054.61 1653 1068.93V1181.25H1621.1V1070.11C1621.1 1057.54 1619.91 1048.09 1617.43 1041.8C1614.98 1035.58 1610.55 1030.58 1604.26 1026.89C1597.93 1023.13 1590.57 1021.25 1582.04 1021.25C1568.43 1021.25 1556.79 1025.48 1546.88 1033.82C1537.05 1042.21 1532.16 1058.07 1532.16 1081.5V1181.25H1500.29V1181.25ZM1302.7 1153.53L1307.13 1180.88C1299.52 1182.6 1291.75 1183.53 1283.95 1183.65C1272.76 1183.65 1264.15 1181.88 1257.99 1178.3C1251.87 1174.79 1247.56 1170.09 1245.06 1164.27C1242.56 1158.52 1241.28 1146.31 1241.28 1127.76V1022.67H1218.76V998.607H1241.28V953.342L1271.85 934.783V998.607H1302.71V1022.67H1271.85V1129.47C1271.85 1138.34 1272.36 1143.97 1273.42 1146.5C1274.54 1149.02 1276.26 1151.01 1278.71 1152.54C1281.15 1154.01 1284.64 1154.78 1289.21 1154.78C1292.64 1154.78 1297.11 1154.36 1302.7 1153.53ZM1040.08 1100.22L1066.89 1097.46C1068.15 1110.09 1071.1 1120.42 1075.75 1128.53C1080.42 1136.63 1087.61 1143.14 1097.37 1148.14C1107.11 1153.12 1118.12 1155.59 1130.33 1155.59C1141.17 1155.59 1150.73 1153.71 1159.03 1149.96C1167.34 1146.14 1173.56 1140.98 1177.6 1134.4C1181.63 1127.91 1183.74 1120.42 1183.71 1112.78C1183.71 1104.86 1181.74 1097.98 1177.78 1092.05C1173.89 1086.11 1167.43 1081.2 1158.5 1077.19C1152.69 1074.53 1139.98 1070.43 1120.22 1064.86C1100.51 1059.28 1086.66 1054.05 1078.75 1049.12C1068.5 1042.83 1060.84 1034.97 1055.79 1025.64C1050.78 1016.3 1048.28 1005.84 1048.28 994.223C1048.28 981.539 1051.33 969.632 1057.48 958.582C1063.64 947.48 1072.63 939.089 1084.44 933.343C1096.3 927.649 1109.41 924.77 1123.87 924.77C1139.82 924.77 1153.83 927.753 1166.03 933.81C1177.9 939.546 1187.7 948.816 1194.09 960.346C1200.59 972.019 1204.14 985.3 1204.64 1000.09L1177.38 1002.5C1175.86 986.584 1170.92 974.496 1162.47 966.39C1154.01 958.232 1141.56 954.172 1125.05 954.172C1107.85 954.172 1095.34 957.882 1087.45 965.275C1079.6 972.667 1075.65 981.604 1075.65 991.992C1075.65 1001.1 1078.44 1008.55 1083.99 1014.37C1089.49 1020.24 1103.75 1026.23 1126.87 1032.33C1149.96 1038.5 1165.81 1043.83 1174.43 1048.41C1186.91 1055.22 1196.18 1063.81 1202.13 1074.13C1208.07 1084.52 1211.04 1096.5 1211.04 1110C1211.04 1123.45 1207.78 1136.07 1201.23 1147.94C1194.74 1159.74 1184.94 1169.37 1173.02 1175.64C1160.77 1182.22 1146.97 1185.53 1131.65 1185.53C1112.2 1185.53 1095.91 1182.23 1082.78 1175.53C1069.62 1168.89 1059.32 1158.91 1051.82 1145.54C1044.39 1132.22 1040.43 1117.07 1040.08 1100.22V1100.22ZM1671.78 1440.75L1702.05 1444.2C1698.73 1462.38 1690.3 1476.63 1676.61 1486.92C1663.01 1497.2 1646.24 1502.35 1626.41 1502.35C1601.58 1502.35 1581.55 1495.26 1566.5 1481.11C1551.33 1466.96 1543.73 1446.63 1543.73 1420.18C1543.73 1403.06 1546.99 1388.08 1553.51 1375.25C1560.04 1362.43 1569.93 1352.81 1583.22 1346.38C1596.49 1339.97 1610.99 1336.78 1626.56 1336.78C1646.32 1336.78 1662.49 1341.14 1674.99 1349.85C1687.56 1358.56 1695.62 1370.88 1699.16 1386.92L1669.18 1390.94C1666.34 1380.31 1661.34 1372.29 1654.06 1366.9C1646.84 1361.55 1638.06 1358.86 1627.8 1358.86C1612.27 1358.86 1599.63 1363.69 1589.95 1373.42C1580.25 1383.08 1575.39 1398.41 1575.39 1419.38C1575.39 1440.69 1580.07 1456.15 1589.5 1465.82C1598.85 1475.45 1611.03 1480.28 1626.1 1480.28C1638.18 1480.28 1648.21 1477.04 1656.34 1470.55C1664.49 1464.1 1669.62 1454.17 1671.78 1440.75V1440.75ZM1475.47 1498.79V1340.39H1506.32V1498.79H1475.47ZM1475.47 1311.01V1280.1H1506.32V1311.01H1475.47ZM1358.32 1498.79V1340.39H1385.99V1364.37C1393.06 1353.19 1399.59 1345.73 1405.65 1342.16C1411.61 1338.59 1418.43 1336.74 1425.38 1336.79C1435.74 1336.79 1446.27 1339.67 1457.01 1345.43L1446.38 1370.39C1439.46 1366.62 1431.73 1364.61 1423.86 1364.54C1417.41 1364.45 1411.08 1366.29 1405.68 1369.81C1400.35 1373.33 1396.33 1378.51 1394.25 1384.55C1390.77 1394.05 1389.11 1404.51 1389.11 1415.86V1498.8H1358.32V1498.79ZM1268.6 1498.79V1361.25H1241.44V1340.39H1268.6V1323.54C1268.6 1312.9 1269.71 1304.94 1271.87 1299.8C1274.85 1292.84 1280.05 1287.17 1287.52 1282.85C1295.02 1278.52 1305.48 1276.38 1318.93 1276.38C1328.58 1276.46 1338.2 1277.36 1347.69 1279.08L1343.08 1302.51C1337.08 1301.52 1331.01 1301 1324.93 1300.97C1315.57 1300.97 1308.99 1302.72 1305.12 1306.22C1301.19 1309.7 1299.3 1316.2 1299.3 1325.77V1340.39H1334.69V1361.25H1299.3V1498.79H1268.6V1498.79ZM1022.56 1498.79L1111.44 1280.12H1144.41L1239.11 1498.79H1204.22L1177.23 1432.55H1080.49L1055.12 1498.79H1022.56V1498.79ZM1089.32 1408.97H1167.8L1143.61 1348.44C1136.29 1330.05 1130.79 1314.93 1127.23 1303.07C1124.22 1317.32 1120.04 1331.31 1114.74 1344.87L1089.32 1408.97V1408.97ZM1847.02 1479.24C1835.55 1487.68 1824.56 1493.62 1814.07 1497.15C1803.08 1500.69 1791.59 1502.45 1780.05 1502.35C1760.09 1502.35 1744.81 1498.12 1734.04 1489.63C1723.33 1481.12 1717.99 1470.24 1717.99 1457.04C1717.99 1449.24 1719.96 1442.17 1724.07 1435.74C1728.04 1429.39 1733.49 1424.1 1739.96 1420.33C1746.57 1416.44 1753.91 1413.51 1762.15 1411.5C1768.15 1410.14 1777.27 1408.78 1789.48 1407.49C1814.35 1404.88 1832.69 1401.82 1844.44 1398.21C1844.55 1394.55 1844.6 1392.2 1844.6 1391.24C1844.6 1380.29 1841.71 1372.56 1835.86 1368.12C1828.02 1362.01 1816.27 1359.01 1800.8 1359.01C1786.31 1359.01 1775.65 1361.2 1768.67 1365.64C1761.81 1370.07 1756.72 1377.92 1753.37 1389.15L1723.31 1385.53C1726.04 1374.35 1730.56 1365.24 1736.78 1358.35C1743.03 1351.44 1752.16 1346.09 1764.02 1342.37C1775.87 1338.66 1789.61 1336.78 1805.26 1336.78C1820.76 1336.78 1833.35 1338.39 1843.03 1341.54C1852.73 1344.76 1859.85 1348.73 1864.48 1353.56C1869.05 1358.4 1872.19 1364.46 1874.05 1371.85C1875.04 1376.43 1875.57 1384.68 1875.57 1396.6V1432.38C1875.57 1457.37 1876.21 1473.16 1877.54 1479.72C1878.84 1486.35 1881.47 1492.7 1885.3 1498.77H1853.13C1849.79 1492.74 1847.72 1486.1 1847.02 1479.24V1479.24ZM1844.44 1419.26C1833.22 1423.29 1816.45 1426.62 1794.16 1429.44C1781.49 1431.02 1772.47 1432.81 1767.29 1434.78C1762.05 1436.75 1757.93 1439.67 1755.12 1443.53C1752.31 1447.18 1750.8 1451.65 1750.81 1456.24C1750.81 1463.44 1753.93 1469.4 1760.17 1474.18C1766.38 1478.92 1775.47 1481.32 1787.43 1481.32C1799.28 1481.32 1809.87 1479.07 1819.09 1474.56C1828.33 1470.01 1835.17 1463.81 1839.45 1455.96C1842.8 1449.9 1844.44 1440.94 1844.44 1429.13V1419.26ZM1445.97 1158.71C1434.55 1168.46 1423.63 1175.31 1413.15 1179.38C1402.31 1183.42 1390.82 1185.45 1379.26 1185.36C1359.37 1185.36 1344.07 1180.49 1333.38 1170.68C1322.72 1160.88 1317.38 1148.32 1317.38 1133.1C1317.38 1124.12 1319.35 1115.96 1323.41 1108.55C1327.2 1101.44 1332.64 1095.34 1339.27 1090.76C1346.04 1086.19 1353.51 1082.76 1361.38 1080.6C1367.39 1079.01 1376.48 1077.42 1388.67 1075.96C1413.44 1072.96 1431.76 1069.45 1443.44 1065.28C1443.57 1061.06 1443.6 1058.36 1443.6 1057.23C1443.6 1044.61 1440.71 1035.67 1434.88 1030.56C1427.1 1023.53 1415.38 1020.06 1399.96 1020.06C1385.52 1020.06 1374.87 1022.57 1367.93 1027.69C1361.07 1032.8 1355.98 1041.84 1352.68 1054.8L1322.71 1050.64C1325.42 1037.72 1329.91 1027.22 1336.13 1019.29C1342.36 1011.32 1351.46 1005.14 1363.29 1000.86C1375.09 996.571 1388.78 994.392 1404.38 994.392C1419.85 994.392 1432.37 996.285 1442.04 999.917C1451.72 1003.61 1458.81 1008.19 1463.39 1013.77C1467.96 1019.35 1471.1 1026.32 1472.94 1034.84C1473.92 1040.14 1474.45 1049.64 1474.45 1063.38V1104.66C1474.45 1133.49 1475.12 1151.69 1476.43 1159.26C1477.72 1166.89 1480.33 1174.24 1484.18 1181.22H1452.11C1448.73 1174.14 1446.66 1166.52 1445.97 1158.71V1158.71ZM1443.42 1089.54C1432.25 1094.18 1415.56 1098.05 1393.29 1101.29C1380.64 1103.1 1371.71 1105.15 1366.55 1107.45C1361.28 1109.74 1357.2 1113.09 1354.41 1117.55C1351.54 1121.9 1350.03 1127.01 1350.07 1132.22C1350.07 1140.51 1353.21 1147.38 1359.4 1152.9C1365.59 1158.36 1374.65 1161.12 1386.61 1161.12C1398.41 1161.12 1408.96 1158.54 1418.18 1153.3C1427.35 1148.08 1434.18 1140.91 1438.46 1131.88C1441.81 1124.89 1443.43 1114.56 1443.43 1100.94V1089.54H1443.42V1089.54ZM1703.24 1181.25H1673.68V929.076H1705.52V1019.03C1718.97 1002.65 1736.15 994.431 1756.97 994.431C1768.58 994.431 1779.49 996.726 1789.83 1001.24C1799.73 1005.47 1808.47 1012.02 1815.31 1020.33C1821.95 1028.55 1827.25 1038.42 1830.97 1050.04C1834.77 1061.6 1836.65 1074.01 1836.65 1087.15C1836.65 1118.5 1828.67 1142.69 1812.71 1159.77C1796.84 1176.86 1777.7 1185.37 1755.41 1185.37C1733.24 1185.37 1715.86 1176.4 1703.25 1158.36V1181.25H1703.24ZM1702.87 1088.53C1702.87 1110.43 1705.95 1126.23 1712.06 1135.98C1722.09 1151.95 1735.67 1159.94 1752.77 1159.94C1766.7 1159.94 1778.71 1154.08 1788.87 1142.27C1799.02 1130.54 1804.09 1113.04 1804.09 1089.72C1804.09 1065.88 1799.2 1048.27 1789.48 1036.93C1779.72 1025.61 1767.97 1019.92 1754.21 1019.92C1740.26 1019.92 1728.22 1025.79 1718.09 1037.53C1707.94 1049.27 1702.87 1066.28 1702.87 1088.53V1088.53ZM320.366 1043.88C320.366 1043.88 316.281 957.856 410.506 953.757C504.718 949.672 713.674 957.856 713.674 957.856C713.674 957.856 779.21 953.757 783.309 1043.88C787.407 1134.01 779.21 1355.22 779.21 1355.22C779.21 1355.22 783.309 1396.2 746.436 1424.87C709.563 1453.55 660.42 1478.13 660.42 1478.13L636.841 1492.52L517.014 1256.9C517.014 1256.9 570.268 1203.66 615.337 1240.52C660.407 1277.4 725.957 1232.32 725.957 1232.32V1105.32C725.957 1105.32 644.014 1129.91 611.239 1121.72C578.477 1113.52 525.211 1097.13 496.534 1101.22C467.858 1105.32 447.366 1113.52 447.366 1113.52C447.366 1113.52 443.281 1084.84 414.591 1056.17C385.915 1027.48 377.718 1052.07 377.718 1076.66C377.718 1101.24 398.211 1125.81 398.211 1125.81L596.622 1516.96L597.556 1516.37L597.621 1516.52L586.648 1523.19C586.648 1523.19 562.071 1547.79 496.521 1515.01C430.972 1482.24 344.944 1416.7 336.747 1412.59C328.563 1408.5 324.465 1383.91 324.465 1289.69C324.465 1195.46 320.366 1043.88 320.366 1043.88V1043.88ZM717.747 1011.11H471.944C471.944 1011.11 447.366 1039.77 504.718 1043.88C562.071 1047.98 553.887 1047.98 607.141 1064.36C660.407 1080.76 693.169 1076.67 713.661 1052.08C734.128 1027.49 717.747 1011.11 717.747 1011.11V1011.11ZM684.972 1400.29C684.972 1400.29 656.296 1408.49 631.705 1371.62C607.128 1334.74 607.128 1330.66 607.128 1330.66C607.128 1330.66 603.029 1310.17 644.001 1310.17H717.747C717.747 1310.17 730.029 1330.66 717.747 1355.24C705.464 1379.81 684.972 1400.29 684.972 1400.29V1400.29ZM377.718 1207.76V1326.57C377.718 1326.57 369.534 1355.24 410.506 1388.01C451.477 1420.79 484.252 1437.18 484.252 1437.18C484.252 1437.18 521.112 1457.65 480.141 1396.21C439.169 1334.74 377.718 1207.76 377.718 1207.76V1207.76Z" fill="white"/>
</svg>
